<svg width="50" height="44" viewBox="0 0 50 44" fill="none" xmlns="http://www.w3.org/2000/svg">
<path fill-rule="evenodd" clip-rule="evenodd" d="M50.0001 18.6927C50.0001 8.9213 42.3111 1 32.8262 1C32.834 4.9647 32.8537 11.8622 32.8515 18.6927C39.2177 18.6927 42.6569 18.7276 50.0001 18.6927Z" fill="#F5F8FC"/>
<path fill-rule="evenodd" clip-rule="evenodd" d="M49.3359 18.0436C49.0131 9.15313 42.0886 2.01082 33.4795 1.66528C33.4824 3.01722 33.4881 5.58779 33.4893 6.15198C33.4991 10.7583 33.504 14.4347 33.5036 18.0407C34.9906 18.0411 36.305 18.0434 38.4962 18.0483C39.2317 18.05 39.2317 18.05 39.9612 18.0515C43.5101 18.0589 46.041 18.058 49.3359 18.0436V18.0436Z" stroke="#323232" stroke-width="1.30435"/>
<path fill-rule="evenodd" clip-rule="evenodd" d="M31.087 38.1772C40.5719 38.1772 48.2609 30.2559 48.2609 20.4845C43.6571 20.4845 34.0647 20.4845 31.087 20.4845C31.087 16.3277 31.087 6.95466 31.087 2.79175C21.6021 2.79175 13.9131 10.713 13.9131 20.4845C13.9131 30.2559 21.6021 38.1772 31.087 38.1772Z" fill="#4A90E2"/>
<path fill-rule="evenodd" clip-rule="evenodd" d="M47.5972 21.1365C44.8103 21.1365 44.5306 21.1365 40.479 21.1365H30.435V20.4843C30.435 11.8678 30.435 11.6469 30.435 3.45508C21.6166 3.81002 14.5654 11.2943 14.5654 20.4843C14.5654 29.8998 21.9669 37.5249 31.0872 37.5249C39.9959 37.5249 47.2647 30.2494 47.597 21.1365H47.5972Z" stroke="#323232" stroke-width="1.30435"/>
<path fill-rule="evenodd" clip-rule="evenodd" d="M31.0594 42.3136H3.2897C2.28706 42.3136 1.47168 41.4736 1.46973 40.4829C1.46973 40.4708 1.55165 39.263 2.02177 37.3901C2.34948 36.0859 5.60125 34.4983 11.6873 32.6756L12.3486 32.4766C13.9891 31.9702 14.2486 28.783 14.2837 27.4366C14.2895 27.2095 14.1842 26.9965 14.0047 26.8679C13.5307 26.5302 13.1055 26.0278 12.6685 25.2883C12.5339 25.0612 12.4013 24.8442 12.2686 24.6312C11.7907 23.8555 11.3772 23.1843 11.0241 22.1775C10.9344 21.9202 10.6964 21.7434 10.4331 21.7313C10.3609 21.7293 10.1639 21.6067 10.0546 21.4038C9.34068 20.0553 9.05198 18.0477 9.20218 17.6016C9.21779 17.5875 9.29386 17.5313 9.48698 17.5313C9.66449 17.5313 9.84395 17.4871 9.97075 17.3544C10.0975 17.2238 10.1658 17.065 10.158 16.8822C10.0137 12.7906 11.4142 10.1273 12.6685 8.99996C12.8302 8.85588 14.4681 7.81151 16.9676 7.83562C17.8149 7.84379 18.7612 7.97475 19.7826 8.30521C23.3114 9.66857 24.3491 12.6399 24.197 16.8862C24.1911 17.065 24.2536 17.2399 24.3745 17.3705C24.4935 17.5011 24.6593 17.5775 24.8349 17.5795C24.9773 17.5835 25.0475 17.6137 25.0553 17.6237C25.2094 18.0739 24.9207 20.0734 24.2067 21.4218C24.0995 21.6228 23.9083 21.7434 23.8303 21.7534C23.5923 21.7876 23.3933 21.9524 23.3114 22.1835C22.9525 23.1823 22.5175 23.8856 22.0551 24.6292C21.9166 24.8522 21.7762 25.0793 21.6338 25.3185C21.2203 26.0198 20.8243 26.5142 20.4283 26.8317C20.2664 26.9603 20.1747 27.1572 20.1747 27.3662C20.1864 28.994 20.4302 31.8215 21.9479 32.4525C22.8881 32.8444 24.037 33.2101 25.2523 33.594C28.2056 34.5304 31.8807 35.696 32.2981 37.3861C32.7994 39.4118 32.8755 39.88 32.8755 40.4387C32.8775 41.4716 32.0621 42.3136 31.0594 42.3136Z" fill="#F5F8FC"/>
<path fill-rule="evenodd" clip-rule="evenodd" d="M25.7219 32.3954C29.361 33.5483 33.1223 34.7418 33.7252 37.1837C34.2375 39.2561 34.3498 39.863 34.3478 40.6039C34.3478 42.3941 32.9351 43.8495 31.1973 43.8495H3.1485C1.41269 43.8495 0 42.3941 0 40.6039C0.00394055 40.5064 0.0866921 39.2114 0.596993 37.1837C1.20187 34.7784 6.32852 32.9414 11.2641 31.4617L11.9221 31.2628C12.3438 31.1328 12.8285 29.779 12.9289 27.7776C12.4147 27.3453 11.9556 26.7729 11.5005 26.0036C11.3685 25.7803 11.2384 25.5692 11.1104 25.3621L11.1097 25.3611C10.6588 24.6287 10.2315 23.9347 9.85531 22.965C9.44353 22.8066 9.06129 22.4697 8.83077 22.0333C8.02493 20.5089 7.55797 18.0671 7.88898 17.1029C8.03281 16.6827 8.34017 16.3884 8.76575 16.2484C8.76378 12.6536 9.67783 10.3618 10.8876 8.9714C13.913 5.49997 18.9466 6.13887 20.3135 6.89306C23.6354 8.24896 25.5899 11.7382 25.588 16.2829C25.9663 16.4331 26.2401 16.7173 26.3741 17.1049C26.7051 18.0711 26.2362 20.515 25.4303 22.0394C25.2136 22.4453 24.8668 22.7721 24.4866 22.9447C24.1025 23.9217 23.6541 24.6458 23.219 25.3486L23.2118 25.3601C23.1702 25.4281 23.1283 25.4961 23.0861 25.5646C22.9923 25.7167 22.8971 25.871 22.802 26.032C22.3744 26.7546 21.9627 27.2945 21.5253 27.7025C21.5784 29.5557 21.9784 31.0679 22.4907 31.281C23.3828 31.6527 24.5092 32.0103 25.7046 32.3899L25.7219 32.3954ZM3.29001 42.3136H31.0597C32.0624 42.3136 32.8778 41.4716 32.8758 40.4387C32.8758 39.88 32.7997 39.4118 32.2984 37.3861C31.881 35.696 28.2059 34.5305 25.2526 33.594C24.0373 33.2102 22.8884 32.8444 21.9482 32.4525C20.4305 31.8215 20.1867 28.994 20.175 27.3662C20.175 27.1572 20.2667 26.9603 20.4286 26.8317C20.8246 26.5142 21.2206 26.0198 21.6341 25.3185C21.7765 25.0793 21.917 24.8522 22.0555 24.6292C22.5178 23.8856 22.9528 23.1823 23.3117 22.1835C23.3936 21.9524 23.5926 21.7876 23.8306 21.7534C23.9086 21.7434 24.0998 21.6228 24.207 21.4219C24.921 20.0734 25.2097 18.0739 25.0556 17.6237C25.0478 17.6137 24.9776 17.5835 24.8352 17.5795C24.6596 17.5775 24.4938 17.5011 24.3748 17.3705C24.2539 17.2399 24.1914 17.0651 24.1973 16.8862C24.3494 12.6399 22.7401 9.51098 19.7829 8.30522C18.7411 7.76468 14.284 7.52664 12.5399 9.52133C11.4193 10.8031 10.014 12.7906 10.1583 16.8822C10.1661 17.0651 10.0978 17.2238 9.97105 17.3544C9.84426 17.4871 9.6648 17.5313 9.48728 17.5313C9.29417 17.5313 9.21809 17.5876 9.20249 17.6016C9.05229 18.0477 9.34098 20.0553 10.0549 21.4038C10.1642 21.6067 10.3612 21.7293 10.4334 21.7313C10.6967 21.7434 10.9347 21.9202 11.0244 22.1775C11.3775 23.1842 11.791 23.8554 12.2689 24.6311L12.2689 24.6312C12.4016 24.8442 12.5342 25.0612 12.6688 25.2883C13.1058 26.0279 13.531 26.5303 14.005 26.8679C14.1845 26.9965 14.2898 27.2095 14.284 27.4366C14.2489 28.783 13.9894 31.9702 12.3489 32.4767L11.6876 32.6756C5.60155 34.4983 2.34978 36.0859 2.02207 37.3901C1.55196 39.2631 1.47003 40.4708 1.47003 40.4829C1.47198 41.4736 2.28736 42.3136 3.29001 42.3136Z" fill="#323232"/>
</svg>
