<svg width="18" height="12" viewBox="0 0 18 12" fill="none" xmlns="http://www.w3.org/2000/svg">
<path fill-rule="evenodd" clip-rule="evenodd" d="M2.9 6.04959L7.2 10.314C7.6 10.7107 7.6 11.3058 7.2 11.7025C6.8 12.0992 6.2 12.0992 5.8 11.7025L0.8 6.7438C0.6 6.54545 0.5 6.24793 0.5 6.04959C0.5 5.75207 0.6 5.45455 0.8 5.2562L5.8 0.297521C6.2 -0.0991735 6.8 -0.0991735 7.2 0.297521C7.6 0.694215 7.6 1.28926 7.2 1.68595L2.9 6.04959Z" fill="#717171"/>
<path fill-rule="evenodd" clip-rule="evenodd" d="M15.1 5.95041L10.8 1.68595C10.4 1.28926 10.4 0.694215 10.8 0.297521C11.2 -0.0991735 11.8 -0.0991735 12.2 0.297521L17.2 5.2562C17.4 5.45455 17.5 5.75207 17.5 5.95041C17.5 6.24793 17.4 6.54545 17.2 6.7438L12.2 11.7025C11.8 12.0992 11.2 12.0992 10.8 11.7025C10.4 11.3058 10.4 10.7107 10.8 10.314L15.1 5.95041Z" fill="#717171"/>
</svg>
