<svg width="37" height="37" viewBox="0 0 37 37" fill="none" xmlns="http://www.w3.org/2000/svg">
<path d="M35 1H2C1.44772 1 1 1.44772 1 2V35C1 35.5523 1.44772 36 2 36H35C35.5523 36 36 35.5523 36 35V2C36 1.44772 35.5523 1 35 1Z" fill="#FFFDF6" stroke="#DFDFDF" stroke-width="2"/>
<path d="M10.42 13.3547C12.0117 13.3547 13.3019 12.0644 13.3019 10.4728C13.3019 8.8811 12.0117 7.59082 10.42 7.59082C8.82837 7.59082 7.53809 8.8811 7.53809 10.4728C7.53809 12.0644 8.82837 13.3547 10.42 13.3547Z" fill="#DFDFDF"/>
<path d="M35.7871 26.2038L25.6574 17.9088C25.2889 17.6071 24.7587 17.6071 24.3902 17.9088L15.8506 24.9017C15.5087 25.1817 15.0236 25.2041 14.6574 24.9568L9.32033 21.3529C8.98219 21.1246 8.53924 21.1246 8.20109 21.3529L1 26.2155" stroke="#DFDFDF" stroke-width="2"/>
</svg>
