<svg width="18" height="18" viewBox="0 0 18 18" fill="none" xmlns="http://www.w3.org/2000/svg">
<path fill-rule="evenodd" clip-rule="evenodd" d="M15.4434 1.28755C15.4973 1.23364 15.5854 1.23435 15.637 1.28593L16.7797 2.42863C16.8327 2.48164 16.8264 2.57391 16.7781 2.62222L9.25369 10.1466C9.19978 10.2005 9.09392 10.2607 9.03349 10.2767L7.41029 10.7072C7.34258 10.7251 7.30545 10.6788 7.32608 10.6081L7.78303 9.04116C7.80423 8.96847 7.87071 8.86025 7.91902 8.81194L15.4434 1.28755Z" stroke="#717171"/>
<path d="M10.3186 2.92432H1.46003C1.23347 2.92432 1.0498 3.10077 1.0498 3.32694V16.4775C1.0498 16.6999 1.22767 16.8801 1.45564 16.8801H14.7113C14.9355 16.8801 15.1172 16.6938 15.1172 16.4737V7.96" stroke="#717171" stroke-linecap="round"/>
</svg>
