<svg width="16" height="16" viewBox="0 0 16 16" fill="none" xmlns="http://www.w3.org/2000/svg">
<path fill-rule="evenodd" clip-rule="evenodd" d="M14.4385 6.08769L15.389 6.49505C15.7511 6.56294 16 6.87977 16 7.24187V8.75813C16 9.12023 15.7511 9.43706 15.389 9.50495L14.4611 9.91231C13.9632 10.116 13.7143 10.6818 13.918 11.2023L14.3027 12.1754C14.4837 12.4696 14.4385 12.8769 14.1895 13.1259L13.1259 14.1895C12.8543 14.4611 12.447 14.5064 12.1528 14.3027L11.2023 13.918C10.7044 13.7369 10.1386 13.9632 9.91231 14.4611L9.50495 15.4116C9.43706 15.7511 9.12023 16 8.75813 16H7.24187C6.87977 16 6.56294 15.7511 6.49505 15.389L6.08769 14.4611C5.88402 13.9632 5.31825 13.7143 4.79774 13.918L3.82461 14.3027C3.53041 14.4837 3.12306 14.4385 2.87412 14.1895L1.81047 13.1259C1.5389 12.8543 1.49364 12.4696 1.69731 12.1528L2.08204 11.2023C2.26308 10.7044 2.03678 10.1386 1.5389 9.91231L0.588402 9.50495C0.248939 9.43706 0 9.12023 0 8.75813V7.24187C0 6.87977 0.248939 6.56294 0.611032 6.49505L1.5389 6.08769C2.03678 5.88402 2.28571 5.31825 2.08204 4.79774L1.69731 3.82461C1.51627 3.53041 1.56153 3.12305 1.81047 2.87412L2.87412 1.81047C3.14569 1.5389 3.55304 1.49363 3.84724 1.69731L4.79774 2.08204C5.29562 2.26308 5.86139 2.03678 6.08769 1.5389L6.49505 0.588402C6.56294 0.248939 6.87977 0 7.24187 0H8.75813C9.12023 0 9.43706 0.248939 9.50495 0.611033L9.91231 1.5389C10.116 2.03678 10.6818 2.28571 11.2023 2.08204L12.1754 1.69731C12.4696 1.51627 12.8769 1.56153 13.1259 1.81047L14.1895 2.87412C14.4385 3.12305 14.5064 3.53041 14.3027 3.84724L13.918 4.79774C13.8274 5.02404 13.8274 5.29562 13.918 5.54455V5.58982C14.0311 5.81612 14.2122 5.99717 14.4385 6.08769ZM4.70721 7.98868C4.70721 9.79915 6.17822 11.2702 7.98868 11.2702C9.79915 11.2702 11.2702 9.79915 11.2702 7.98868C11.2702 6.17822 9.79915 4.70721 7.98868 4.70721C6.17822 4.70721 4.70721 6.17822 4.70721 7.98868Z" fill="#717171"/>
</svg>
