<svg width="84" height="87" viewBox="0 0 84 87" fill="none" xmlns="http://www.w3.org/2000/svg">
<g filter="url(#filter0_d_1230_5668)">
<mask id="mask0_1230_5668" style="mask-type:alpha" maskUnits="userSpaceOnUse" x="0" y="0" width="80" height="79">
<path fill-rule="evenodd" clip-rule="evenodd" d="M0 0.663818H79.8512V78.8625H0V0.663818Z" fill="white"/>
</mask>
<g mask="url(#mask0_1230_5668)">
<path fill-rule="evenodd" clip-rule="evenodd" d="M39.9259 0.663574C17.8783 0.663574 0 18.6112 0 40.7531C0 58.465 11.44 73.4923 27.3038 78.7932C29.2992 79.1643 30.0317 77.9236 30.0317 76.8647C30.0317 75.9094 29.9947 72.7507 29.9775 69.4009C18.8701 71.826 16.5263 64.6708 16.5263 64.6708C14.7101 60.0377 12.0932 58.8049 12.0932 58.8049C8.47074 56.3168 12.3663 56.3679 12.3663 56.3679C16.3755 56.6507 18.4866 60.4998 18.4866 60.4998C22.0476 66.6279 27.8268 64.856 30.1051 63.8317C30.4635 61.2413 31.4982 59.4721 32.64 58.471C23.7719 57.4579 14.4496 54.0198 14.4496 38.6586C14.4496 34.2824 16.0093 30.7055 18.5633 27.898C18.1488 26.8883 16.7821 22.8108 18.9501 17.2888C18.9501 17.2888 22.3035 16.212 29.9326 21.3988C33.1174 20.5105 36.5329 20.065 39.9259 20.0491C43.319 20.065 46.7372 20.5105 49.9279 21.3988C57.5484 16.212 60.8965 17.2888 60.8965 17.2888C63.0698 22.8108 61.7031 26.8883 61.2886 27.898C63.8486 30.7055 65.397 34.2824 65.397 38.6586C65.397 54.057 56.0569 57.4467 47.1663 58.4391C48.5984 59.6832 49.8744 62.1229 49.8744 65.8631C49.8744 71.2272 49.8288 75.5443 49.8288 76.8647C49.8288 77.9322 50.5468 79.1816 52.5706 78.7886C68.4258 73.4817 79.8519 58.4597 79.8519 40.7531C79.8519 18.6112 61.9762 0.663574 39.9259 0.663574Z" fill="#181717"/>
</g>
<path fill-rule="evenodd" clip-rule="evenodd" d="M15.1221 58.2228C15.0341 58.4226 14.7221 58.4824 14.4378 58.3456C14.1475 58.2141 13.9855 57.9426 14.0794 57.7428C14.1654 57.5383 14.4774 57.4812 14.767 57.618C15.0566 57.7488 15.2219 58.023 15.1221 58.2228Z" fill="#181717"/>
<path fill-rule="evenodd" clip-rule="evenodd" d="M16.7394 60.0342C16.5489 60.2115 16.1761 60.1291 15.9242 59.849C15.6623 59.5695 15.6141 59.1951 15.8071 59.0158C16.0035 58.8386 16.3645 58.9216 16.6256 59.2011C16.8875 59.4839 16.9384 59.8543 16.7394 60.0342Z" fill="#181717"/>
<path fill-rule="evenodd" clip-rule="evenodd" d="M18.3136 62.3429C18.0689 62.5141 17.6683 62.3542 17.421 61.997C17.1764 61.6405 17.1764 61.213 17.427 61.0417C17.6742 60.8704 18.0689 61.0251 18.3195 61.3783C18.5635 61.7407 18.5635 62.1683 18.3136 62.3429Z" fill="#181717"/>
<path fill-rule="evenodd" clip-rule="evenodd" d="M20.4696 64.5736C20.2508 64.8159 19.7847 64.7509 19.4435 64.4203C19.0944 64.097 18.9972 63.6382 19.2161 63.3959C19.4382 63.153 19.907 63.2213 20.2508 63.5493C20.5972 63.8719 20.703 64.334 20.4696 64.5736Z" fill="#181717"/>
<path fill-rule="evenodd" clip-rule="evenodd" d="M23.4455 65.8689C23.349 66.1829 22.9 66.3249 22.4478 66.1915C21.9962 66.0541 21.7007 65.687 21.7919 65.3696C21.8858 65.053 22.3367 64.9049 22.7923 65.0477C23.2432 65.1844 23.5394 65.5496 23.4455 65.8689Z" fill="#181717"/>
<path fill-rule="evenodd" clip-rule="evenodd" d="M26.7125 66.1088C26.7237 66.4394 26.3402 66.7136 25.8655 66.7195C25.3882 66.7308 25.0014 66.4626 24.9961 66.1373C24.9961 65.8034 25.3716 65.5325 25.8483 65.5239C26.323 65.5146 26.7125 65.7808 26.7125 66.1088Z" fill="#181717"/>
<path fill-rule="evenodd" clip-rule="evenodd" d="M29.7531 65.5895C29.8099 65.9115 29.48 66.2427 29.0086 66.331C28.5451 66.4167 28.1161 66.2168 28.0572 65.8975C27.9997 65.5669 28.3349 65.2356 28.7984 65.15C29.2704 65.0677 29.6929 65.2615 29.7531 65.5895Z" fill="#181717"/>
</g>
<defs>
<filter id="filter0_d_1230_5668" x="-4" y="0.663818" width="87.8516" height="86.1987" filterUnits="userSpaceOnUse" color-interpolation-filters="sRGB">
<feFlood flood-opacity="0" result="BackgroundImageFix"/>
<feColorMatrix in="SourceAlpha" type="matrix" values="0 0 0 0 0 0 0 0 0 0 0 0 0 0 0 0 0 0 127 0" result="hardAlpha"/>
<feOffset dy="4"/>
<feGaussianBlur stdDeviation="2"/>
<feComposite in2="hardAlpha" operator="out"/>
<feColorMatrix type="matrix" values="0 0 0 0 0 0 0 0 0 0 0 0 0 0 0 0 0 0 0.25 0"/>
<feBlend mode="normal" in2="BackgroundImageFix" result="effect1_dropShadow_1230_5668"/>
<feBlend mode="normal" in="SourceGraphic" in2="effect1_dropShadow_1230_5668" result="shape"/>
</filter>
</defs>
</svg>
