<svg width="18" height="18" viewBox="0 0 18 18" fill="none" xmlns="http://www.w3.org/2000/svg">
<path fill-rule="evenodd" clip-rule="evenodd" d="M9 18C13.9706 18 18 13.9706 18 9C18 4.02944 13.9706 0 9 0C4.02944 0 0 4.02944 0 9C0 13.9706 4.02944 18 9 18Z" fill="#65A61E"/>
<path d="M12.2274 5.20023C12.5415 4.74593 13.1643 4.63223 13.6186 4.94628C14.073 5.26033 14.1867 5.8832 13.8726 6.3375L9.5952 12.5252C8.9235 13.4969 7.61446 13.5998 6.79567 12.7475L4.22889 10.0758C3.84626 9.67757 3.85894 9.04453 4.25721 8.6619C4.65547 8.27928 5.28851 8.29196 5.67114 8.69022L8.08094 11.1985L12.2274 5.20023Z" fill="white"/>
</svg>
