<svg width="20" height="21" viewBox="0 0 20 21" fill="none" xmlns="http://www.w3.org/2000/svg">
<path fill-rule="evenodd" clip-rule="evenodd" d="M11.0311 15.0509C10.7331 15.0575 10.4461 14.937 10.2399 14.7189L9.29987 13.766C6.22279 14.8603 2.80811 13.6515 1.07226 10.8533C-0.663602 8.05519 -0.258911 4.41204 2.04735 2.07521C4.3528 -0.262435 7.94705 -0.672632 10.7076 1.08685C13.4682 2.84632 14.6608 6.30747 13.5812 9.42642L19.6937 15.6221C19.8905 15.8207 20.0008 16.0909 20 16.3723L19.9871 19.3299C19.9859 19.8414 19.5771 20.2557 19.0725 20.2569L16.1547 20.27C15.8791 20.2706 15.6145 20.1605 15.4188 19.9639L14.6808 19.2158C14.4758 19.0039 14.3605 18.7193 14.3596 18.4225V17.2972H13.4196C12.7148 17.2972 12.1435 16.7181 12.1435 16.0037L12.1435 15.0509H11.0311ZM12.0572 9.27108C13.0785 6.82871 12.2486 3.99538 10.0778 2.51342C7.90707 1.03145 5.0045 1.31661 3.15298 3.19767C1.30256 5.07205 1.02167 8.01235 2.48293 10.2117C3.94419 12.411 6.73801 13.253 9.14752 12.2201C9.37653 12.1218 9.64147 12.174 9.81743 12.3522L11.1893 13.7426H12.6269C13.061 13.7426 13.4128 14.0992 13.4128 14.5391V15.8785H14.7384C15.1725 15.8785 15.5244 16.2351 15.5244 16.6751V18.1341L16.121 18.7387H18.4891V16.3387L12.1876 9.95003C12.0118 9.7717 11.9603 9.50318 12.0572 9.27108ZM6.93415 9.29995C8.17116 9.29995 9.17396 8.28361 9.17396 7.0299C9.17396 5.77619 8.17116 4.75985 6.93415 4.75985C5.69713 4.75985 4.69434 5.77619 4.69434 7.0299C4.69434 8.28361 5.69713 9.29995 6.93415 9.29995ZM7.95245 7.04642C7.95245 6.47655 7.49664 6.01458 6.93436 6.01458V6.01251C6.66399 6.01251 6.40472 6.12151 6.21373 6.31546C6.02275 6.50941 5.91572 6.7724 5.91626 7.04642C5.91626 7.61628 6.37208 8.07826 6.93436 8.07826C7.49664 8.07826 7.95245 7.61628 7.95245 7.04642Z" fill="#9B9B9B"/>
</svg>
