<svg width="51" height="50" viewBox="0 0 51 50" fill="none" xmlns="http://www.w3.org/2000/svg">
<path fill-rule="evenodd" clip-rule="evenodd" d="M46.5385 10.9557C46.2469 10.0233 45.547 9.26576 44.6722 8.79956L26.8844 0.291376C26.4178 0.0582752 25.8929 0 25.4263 0C24.9598 0 24.4349 0 23.9683 0.11655L6.1805 8.68301C5.30569 9.09093 4.66416 9.84851 4.43088 10.8392L0.0568253 30.0117C-0.118137 31.0024 0.115146 31.9931 0.698354 32.8089L13.004 48.0188C13.7039 48.7181 14.6953 49.1843 15.6868 49.2426H35.2826C36.3323 49.3591 37.3238 48.8929 37.9653 48.0188L50.271 32.8089C50.8542 31.9931 51.0875 31.0024 50.9708 30.0117L46.5385 10.9557Z" fill="#326DE6"/>
<path fill-rule="evenodd" clip-rule="evenodd" d="M43.7976 29.2541C43.7393 29.2541 43.681 29.2541 43.681 29.1958C43.681 29.1376 43.5643 29.1376 43.4477 29.1376C43.2144 29.0793 42.9811 29.0793 42.7478 29.0793C42.6312 29.0793 42.5145 29.0793 42.3979 29.021H42.3396C41.6981 28.9627 40.9982 28.8462 40.3567 28.6714C40.1817 28.6131 40.0068 28.4383 39.9484 28.2634L39.4819 28.1469C39.7152 26.4569 39.5985 24.7087 39.2486 23.0187C38.8403 21.3287 38.1405 19.697 37.2074 18.2401L37.5573 17.8905V17.8322C37.5573 17.6574 37.6156 17.4243 37.7322 17.3077C38.2571 16.8415 38.782 16.4918 39.3652 16.1422L39.7152 15.9674C39.8318 15.9091 39.9339 15.8508 40.0359 15.7925C40.138 15.7343 40.24 15.676 40.3567 15.6177C40.3858 15.5886 40.415 15.574 40.4442 15.5594C40.4733 15.5449 40.5025 15.5303 40.5316 15.5012C40.5677 15.4652 40.5592 15.4514 40.5474 15.4324C40.5401 15.4206 40.5316 15.4069 40.5316 15.3846C41.0565 14.9767 41.1732 14.2774 40.7649 13.7529C40.59 13.5198 40.24 13.345 39.9484 13.345C39.6568 13.345 39.3652 13.4615 39.1319 13.6364L39.0736 13.6946C39.0153 13.7529 38.957 13.8112 38.8987 13.8112L38.8986 13.8112C38.7237 13.986 38.5487 14.1608 38.4321 14.3357C38.3914 14.4169 38.3224 14.4699 38.2646 14.5142L38.2645 14.5142L38.2644 14.5144L38.2644 14.5144C38.2393 14.5336 38.2164 14.5512 38.1988 14.5688C37.7906 15.035 37.2657 15.5012 36.7408 15.8508C36.6242 15.9091 36.5075 15.9674 36.3909 15.9674C36.3326 15.9674 36.2159 15.9674 36.1576 15.9091H36.0993L35.6327 16.2005C35.3995 15.9675 35.1518 15.7345 34.9041 15.5015L34.904 15.5015L34.9039 15.5014L34.9039 15.5014L34.9038 15.5013L34.9038 15.5013L34.9037 15.5012L34.9037 15.5012C34.6558 15.2681 34.408 15.035 34.1747 14.8019C32.0168 13.1119 29.3341 12.0629 26.593 11.7716L26.5347 11.3054V11.3636C26.3597 11.2471 26.3014 11.0723 26.2431 10.8974C26.2431 10.2564 26.2431 9.61537 26.3597 8.91607V8.85779C26.3597 8.79953 26.3743 8.74126 26.3889 8.68299L26.3889 8.68297C26.4034 8.62469 26.418 8.56642 26.418 8.50814C26.4472 8.39159 26.4618 8.27504 26.4763 8.15849C26.4909 8.04194 26.5055 7.92539 26.5347 7.80884V7.45919C26.593 6.87644 26.1264 6.29368 25.5432 6.23541C25.1933 6.17713 24.8434 6.35196 24.5518 6.64334C24.3185 6.87644 24.2018 7.16781 24.2018 7.45919V7.75056C24.2018 7.98367 24.2602 8.21677 24.3185 8.44987C24.3768 8.56642 24.3768 8.68297 24.3768 8.79952V8.85779C24.4934 9.49882 24.4934 10.1398 24.4934 10.8392C24.4351 11.014 24.3768 11.1888 24.2018 11.3054V11.4219L24.1435 11.8881C23.5946 11.938 23.0457 12.0305 22.4602 12.1292C22.3614 12.1458 22.2616 12.1627 22.1606 12.1795C19.4195 12.7622 16.9117 14.2191 14.9872 16.2587L14.6372 16.0256H14.5789C14.5548 16.0256 14.5306 16.0356 14.5023 16.0474C14.4623 16.0639 14.414 16.0839 14.3456 16.0839C14.229 16.0839 14.1123 16.0256 13.9957 15.9674C13.4708 15.5594 12.9459 15.0932 12.5377 14.627C12.497 14.5458 12.428 14.4928 12.3702 14.4485L12.3702 14.4485C12.3451 14.4292 12.3221 14.4116 12.3044 14.3939C12.2169 14.3065 12.144 14.2191 12.0711 14.1317L12.0711 14.1317C11.9982 14.0443 11.9253 13.9569 11.8378 13.8695C11.8087 13.8403 11.7795 13.8258 11.7504 13.8112C11.7212 13.7966 11.692 13.782 11.6629 13.7529L11.6045 13.6946C11.3713 13.5198 11.0797 13.4033 10.7881 13.4033C10.4381 13.4033 10.1465 13.5198 9.97157 13.8112C9.62164 14.3357 9.73829 15.035 10.2049 15.4429C10.2632 15.4429 10.2632 15.5012 10.2632 15.5012C10.2632 15.5012 10.3798 15.6177 10.4381 15.6177C10.6131 15.7343 10.8464 15.8508 11.0797 15.9674L11.4296 16.1422C12.0128 16.4918 12.596 16.8415 13.0626 17.3077C13.169 17.4141 13.2755 17.6176 13.2489 17.7853L13.2375 17.7739V17.8322C13.2426 17.8169 13.2464 17.8013 13.2489 17.7853L13.5875 18.1236C13.5583 18.1818 13.5291 18.2255 13.5 18.2692C13.4708 18.3129 13.4417 18.3567 13.4125 18.4149C11.6045 21.2704 10.8464 24.6504 11.3713 27.9721L10.9047 28.0886C10.9047 28.1469 10.8464 28.1469 10.8464 28.1469C10.7881 28.3217 10.6131 28.4383 10.4381 28.5548C9.79661 28.7296 9.15508 28.8462 8.45523 28.9045C8.33859 28.9045 8.22195 28.9045 8.1053 28.9627C7.98866 28.9627 7.87202 28.9773 7.75538 28.9919L7.75533 28.9919C7.63871 29.0065 7.52208 29.021 7.40546 29.021C7.3813 29.021 7.35714 29.031 7.32884 29.0427C7.28881 29.0593 7.2405 29.0793 7.17217 29.0793C7.14738 29.0793 7.13313 29.0793 7.12046 29.0838C7.10332 29.0898 7.08907 29.1041 7.05554 29.1376L7.05553 29.1376C6.414 29.2541 6.00576 29.8369 6.1224 30.4779C6.23904 31.0024 6.76393 31.352 7.28881 31.2938C7.40546 31.2938 7.46378 31.2938 7.58042 31.2355C7.63874 31.2355 7.63874 31.2355 7.63874 31.1772C7.63874 31.1366 7.72379 31.1526 7.79506 31.166C7.82601 31.1719 7.85436 31.1772 7.87202 31.1772C8.01846 31.1406 8.1649 31.0811 8.29691 31.0274C8.3752 30.9956 8.44842 30.9658 8.51355 30.9441C8.63019 30.8858 8.74683 30.8276 8.86347 30.8276H8.9218C9.56332 30.5945 10.1465 30.4196 10.8464 30.3031H10.9047C11.0797 30.3031 11.2546 30.3614 11.3713 30.4779C11.4296 30.4779 11.4296 30.5362 11.4296 30.5362L11.9545 30.4779C12.8293 33.1586 14.4623 35.5478 16.7368 37.2961C17.2617 37.704 17.7282 38.0537 18.3114 38.3451L18.0198 38.753C18.0198 38.8113 18.0782 38.8113 18.0782 38.8113C18.1948 38.9861 18.1948 39.2192 18.1365 39.394C17.9032 39.9768 17.5533 40.5595 17.2033 41.084V41.1423C17.145 41.2588 17.0867 41.3171 16.9701 41.4336C16.9046 41.4991 16.8391 41.6013 16.7632 41.7196C16.704 41.812 16.6385 41.9142 16.5618 42.0164C16.5327 42.0455 16.5181 42.0747 16.5035 42.1038C16.4889 42.1329 16.4743 42.1621 16.4452 42.1912C16.4452 42.1912 16.4452 42.2495 16.3869 42.2495C16.0952 42.8322 16.3285 43.5315 16.8534 43.8229C16.9701 43.8812 17.145 43.9395 17.2617 43.9395C17.7282 43.9395 18.1365 43.6481 18.3698 43.2402C18.3698 43.2402 18.3698 43.1819 18.4281 43.1819C18.4281 43.1236 18.4864 43.0653 18.5447 43.0071C18.5739 42.8905 18.6176 42.7885 18.6614 42.6866C18.7051 42.5846 18.7488 42.4826 18.778 42.366L18.8946 42.0164C19.0696 41.3754 19.3612 40.7926 19.6528 40.2099C19.7695 40.035 19.9444 39.9185 20.1194 39.8602C20.1777 39.8602 20.1777 39.8602 20.1777 39.8019L20.411 39.3357C22.044 39.9768 23.7353 40.2681 25.4849 40.2681C26.5347 40.2681 27.5844 40.1516 28.6342 39.8602C29.1125 39.7733 29.5908 39.6217 30.0449 39.4776L30.0449 39.4776C30.1999 39.4285 30.3521 39.3802 30.5005 39.3357L30.7338 39.7437C30.7629 39.7437 30.7775 39.7437 30.7848 39.7509C30.7921 39.7582 30.7921 39.7728 30.7921 39.8019C30.967 39.8602 31.142 39.9768 31.2586 40.1516C31.5502 40.7343 31.8419 41.3171 32.0168 41.9581V42.0164L32.1335 42.366C32.1918 42.5991 32.2501 42.8322 32.3667 43.0071C32.3959 43.0362 32.4105 43.0653 32.4251 43.0945C32.4396 43.1236 32.4542 43.1528 32.4834 43.1819C32.4834 43.1819 32.4834 43.2402 32.5417 43.2402C32.775 43.6481 33.1832 43.9395 33.6498 43.9395C33.7882 43.9395 33.8902 43.903 34.0134 43.8589L34.0134 43.8589C34.0459 43.8472 34.0799 43.8351 34.1164 43.8229C34.3496 43.7064 34.5829 43.4733 34.6412 43.1819C34.6996 42.8905 34.6996 42.5991 34.5829 42.3078C34.5829 42.2495 34.5246 42.2495 34.5246 42.2495C34.5246 42.1912 34.4663 42.133 34.408 42.0747L34.408 42.0747C34.2913 41.8416 34.1747 41.6667 33.9997 41.4919C33.9414 41.3754 33.8831 41.3171 33.7665 41.2006L33.7664 41.2005V41.084C33.3582 40.5595 33.0666 39.9768 32.8333 39.394C32.775 39.2192 32.775 38.9861 32.8916 38.8113C32.8916 38.753 32.9499 38.753 32.9499 38.753L32.775 38.2868C35.7493 36.4802 38.0239 33.683 39.0736 30.3614L39.5402 30.4196C39.5985 30.4196 39.5985 30.3614 39.5985 30.3614C39.7152 30.2448 39.8901 30.1865 40.0651 30.1865H40.1234C40.7649 30.3031 41.4065 30.4779 41.9897 30.711H42.048C42.1646 30.7693 42.2813 30.8276 42.3979 30.8276C42.4581 30.8576 42.5143 30.8877 42.5687 30.9167L42.5688 30.9168L42.569 30.9169C42.7255 31.0004 42.8664 31.0757 43.0394 31.1189C43.0636 31.1189 43.0877 31.1289 43.1161 31.1406C43.1561 31.1572 43.2044 31.1772 43.2727 31.1772C43.331 31.1772 43.331 31.1772 43.3894 31.2355C43.506 31.2938 43.5643 31.2938 43.681 31.2938C44.2059 31.2938 44.6724 30.9441 44.8474 30.4779C44.7891 29.8369 44.3225 29.3707 43.7976 29.2541ZM26.9429 27.4476L25.3682 28.2052L23.7936 27.4476L23.3853 25.7576L24.4934 24.359H26.243L27.3511 25.7576L26.9429 27.4476ZM36.6825 27.3311C36.7992 26.1073 36.7408 24.8835 36.4492 23.6597C36.1576 22.436 35.6911 21.2704 35.0495 20.2215L30.6755 24.1842C30.5588 24.3008 30.5005 24.4173 30.4422 24.5921C30.3256 25.1166 30.6172 25.6411 31.142 25.7576L36.6825 27.3311ZM33.2998 18.0653L28.5175 21.4453C28.1093 21.6784 27.526 21.6201 27.2344 21.2122C27.1178 21.0956 27.0595 20.9791 27.0595 20.8042L26.7096 14.9184C29.2757 15.2098 31.5502 16.317 33.2998 18.0653ZM23.9102 14.8602L22.7437 15.0933C20.7025 15.5595 18.8362 16.6084 17.3199 18.0653L22.1605 21.5035C22.197 21.5157 22.231 21.5279 22.2635 21.5395C22.3867 21.5836 22.4887 21.6201 22.6271 21.6201C23.152 21.6201 23.6185 21.2122 23.6185 20.6877L23.9102 14.8602ZM15.6287 20.2215L19.9444 24.0677C20.3526 24.4173 20.411 25.0001 20.061 25.408C19.9444 25.5828 19.8278 25.6411 19.5945 25.6994L13.9374 27.3311C13.7624 24.8835 14.3456 22.3777 15.6287 20.2215ZM20.4109 29.0793L14.6372 30.07C15.4537 32.401 17.0866 34.4407 19.1279 35.781L21.3441 30.4197C21.4607 30.2448 21.4607 30.0117 21.4024 29.8369C21.3441 29.3707 20.8775 29.0793 20.4109 29.0793ZM27.8761 37.2962C27.0596 37.471 26.2431 37.5875 25.3683 37.5875C24.1436 37.5875 22.8605 37.3544 21.6941 37.0048L24.5518 31.8183C24.8434 31.4687 25.31 31.3521 25.7182 31.5852C25.8932 31.7017 26.0098 31.8183 26.1848 31.9931L26.1848 31.9931L28.9842 37.0631C28.6343 37.1213 28.2843 37.1796 27.8761 37.2962ZM31.492 35.7227C32.8917 34.8486 34.1165 33.6248 34.9913 32.2262C35.4578 31.5852 35.8078 30.8276 36.0994 30.0117L30.2673 29.0211C30.0923 29.0211 29.9174 29.0793 29.7424 29.1376C29.3342 29.3124 29.1009 29.7786 29.2175 30.2448L31.492 35.7227Z" fill="white"/>
</svg>
