<svg width="51" height="52" viewBox="0 0 51 52" fill="none" xmlns="http://www.w3.org/2000/svg">
<g filter="url(#filter0_d_1230_4467)">
<path fill-rule="evenodd" clip-rule="evenodd" d="M8.32393 13.4264C9.44112 14.5436 9.71073 14.8132 10.8837 13.6016C12.0567 12.3899 11.6969 12.0532 10.697 11.0533C10.4593 10.8157 9.0174 9.33231 8.71031 9.02522C7.42144 7.73635 8.49005 5.78813 10.3968 5.8216C14.5854 5.8951 19.4428 8.42204 19.9163 15.3411C20.0135 16.9161 20.4057 17.7037 21.0794 18.3775C21.7532 19.0513 28.0184 25.3165 28.7086 26.0067C29.3988 26.6969 30.1755 27.1079 31.6558 27.0806C37.7438 26.9687 40.6537 33.1307 40.9216 35.8091C41.1895 38.4876 38.8467 39.1616 37.6552 37.9701C36.4637 36.7786 36.7132 37.0196 35.906 36.2623C35.0988 35.5051 34.7607 35.0756 33.5387 36.2565C32.3145 37.4535 32.6622 37.8391 33.5433 38.6823C34.4244 39.5256 34.074 39.1399 35.2614 40.3639C36.4488 41.5878 36.1031 44.2395 32.7799 43.9508C29.4566 43.6622 24.1488 40.4844 24.6965 34.0399C24.7576 33.1361 24.6543 32.7907 23.2894 31.4258C21.9246 30.061 16.3639 24.5113 15.6603 23.7967C14.9566 23.082 13.9754 22.1118 12.957 22.3004C4.99438 23.6541 3.06189 16.1726 2.94518 13.2732C2.85326 10.9897 5.22677 10.3292 6.69102 11.7935C8.15526 13.2577 7.9286 13.0311 8.32393 13.4264Z" fill="#F5F8FC"/>
<path fill-rule="evenodd" clip-rule="evenodd" d="M7.84398 13.9064L6.21107 12.2735C5.0986 11.161 3.56107 11.6987 3.62335 13.246C3.82839 18.3396 6.93656 22.6355 12.8334 21.6331C13.9886 21.4191 14.8192 21.9752 16.1439 23.3205C16.47 23.6517 17.8115 24.994 20.0664 27.2468C20.7136 27.8934 20.7136 27.8934 21.3409 28.52C22.1136 29.2917 22.1136 29.2917 22.7789 29.9563C23.2485 30.4254 23.5604 30.737 23.7694 30.946C25.185 32.3616 25.4545 32.8897 25.3728 34.0975C24.9384 39.2086 28.7337 42.9181 32.8386 43.2747C35.1159 43.4725 35.8214 41.9159 34.7742 40.8365C34.1638 40.2073 33.9584 40.0013 33.7626 39.8186C33.7265 39.7848 33.5639 39.6349 33.5125 39.587C33.3845 39.4681 33.2477 39.339 33.074 39.1727C31.7684 37.9232 31.6696 37.1348 33.067 35.7686C34.3639 34.5151 35.1081 34.5756 36.246 35.6502C36.3077 35.7085 36.3077 35.7085 36.3704 35.7674C37.0392 36.3949 36.9521 36.3128 37.111 36.4682C37.2542 36.6082 37.4225 36.7766 38.1351 37.4902C39.0367 38.3918 40.4275 37.6889 40.2462 35.8767C39.8615 32.0304 36.2994 27.6741 31.6683 27.7593C30.126 27.7877 29.1341 27.3922 28.2286 26.4867L20.5995 18.8575C19.7412 17.9993 19.3394 17.0112 19.2391 15.3875C18.847 9.65811 15.1787 6.58443 10.3848 6.5003C9.03903 6.47668 8.37091 7.72603 9.19024 8.54536C9.31967 8.67479 9.59812 8.95913 10.1778 9.55279L10.2153 9.59121C10.9073 10.2999 11.0824 10.479 11.1769 10.5735L11.2052 10.6018C12.5888 11.9851 12.7119 12.689 11.3714 14.0737C10.6229 14.8469 10.1162 15.1583 9.47749 15.0579C8.96039 14.9766 8.71133 14.7738 7.84398 13.9064Z" stroke="#323232" stroke-width="1.35747"/>
<path fill-rule="evenodd" clip-rule="evenodd" d="M41.1293 12.182C40.4175 14.8312 41.4128 16.0183 44.193 15.24C46.0766 17.1236 47.2225 17.6046 45.04 19.787C42.8575 21.9695 41.35 23.4553 40.136 24.6693C38.922 25.8832 37.8766 24.4281 37.8766 24.4281L36.4172 22.9686C37.9777 18.4537 33.6196 19.5867 33.3937 19.9176C31.5096 18.0994 30.6196 17.1436 30.6196 17.1436C30.6196 17.1436 29.8559 16.4821 30.0421 15.6068C30.2283 14.7315 30.2286 8.61341 23.8971 9.86306C22.6869 9.96983 22.4885 9.43985 22.4885 9.43985L21.7306 8.04647C21.7306 8.04647 21.2117 7.33437 22.6913 6.47026C31.3878 1.20186 37.0059 8.04686 37.0059 8.04686C37.0059 8.04686 39.7576 10.7986 41.1293 12.182Z" fill="#4A90E2"/>
<path fill-rule="evenodd" clip-rule="evenodd" d="M40.3803 12.3907C39.9976 12.0054 39.5215 11.5272 38.9717 10.9759C38.4372 10.4398 37.864 9.86569 37.2907 9.29181C36.9658 8.96662 36.9658 8.96662 36.7364 8.73712C36.5643 8.56502 36.5643 8.56502 36.4814 8.47748C36.4722 8.4662 36.4478 8.43777 36.4085 8.39417C36.0547 8.00107 35.5456 7.53215 34.8939 7.06326C33.9301 6.36983 32.8467 5.82267 31.6556 5.49338C29.0258 4.76636 26.1544 5.16597 23.0338 7.05637C22.4747 7.38293 22.3184 7.60563 22.3214 7.72307C22.3211 7.71322 22.3127 7.69241 22.3271 7.7222L23.1243 9.20185C23.104 9.15259 23.0994 9.14307 23.0869 9.12275C23.1106 9.16109 23.2827 9.23593 23.7659 9.19719C26.8584 8.58681 28.9431 9.55351 30.0166 11.6259C30.7123 12.969 30.9086 14.7965 30.7062 15.7481C30.6773 15.8841 30.6924 16.0206 30.748 16.1642C30.8229 16.358 30.955 16.5291 31.0671 16.6329C31.0699 16.6355 31.0699 16.6355 31.1166 16.6811C31.1633 16.7312 31.2604 16.8336 31.4088 16.9874C31.9403 17.5383 32.6425 18.2427 33.5208 19.0958C34.1578 18.869 35.0673 18.7926 35.7462 18.969C37.2204 19.3521 37.793 20.6904 37.1891 22.7805L38.3567 23.9482L38.428 24.0321C38.4238 24.0266 38.4343 24.0402 38.4476 24.0563C38.5566 24.1878 38.7045 24.3197 38.8612 24.4001C39.122 24.534 39.3394 24.5062 39.6563 24.1893C40.1427 23.7029 40.1447 23.7009 41.7467 22.1098C42.8392 21.0247 43.6314 20.236 44.5603 19.3071C45.3576 18.5098 45.5999 18.0527 45.5414 17.7544C45.4869 17.4764 45.2524 17.1989 44.3503 16.3386C44.206 16.201 44.092 16.0916 43.9893 15.992C41.1412 16.6404 39.7674 15.2113 40.3803 12.3907Z" stroke="#323232" stroke-width="1.35747"/>
<path fill-rule="evenodd" clip-rule="evenodd" d="M28.6091 17.9157L32.1044 21.4111C32.1044 21.4111 16.1054 39.0878 13.0969 42.4858C9.55013 46.0326 4.12671 40.5667 7.65225 37.0411C11.8343 32.8591 28.6091 17.9157 28.6091 17.9157Z" fill="#4A90E2"/>
<path fill-rule="evenodd" clip-rule="evenodd" d="M28.5824 18.849C28.506 18.9172 28.4225 18.9918 28.3321 19.0724C27.7488 19.5932 27.0918 20.1805 26.3754 20.8218C24.3286 22.654 22.2165 24.5516 20.1538 26.414C19.4106 27.085 18.6858 27.7407 17.9826 28.3783C13.1808 32.7317 9.70667 35.9467 8.13218 37.5211C6.79728 38.856 6.92577 40.6541 8.20333 41.9367C9.4815 43.2198 11.2737 43.3492 12.5887 42.0359C13.7557 40.7179 16.9195 37.2026 21.4899 32.1407C21.6634 31.9486 21.6634 31.9486 21.8369 31.7564C23.9716 29.3924 26.2598 26.8608 28.5487 24.3298C29.3499 23.444 30.0939 22.6215 30.7616 21.8835C30.9373 21.6894 31.0681 21.5449 31.1679 21.4345L28.5824 18.849Z" stroke="#323232" stroke-width="1.35747"/>
</g>
<defs>
<filter id="filter0_d_1230_4467" x="-1.05762" y="4.47412" width="51.2861" height="47.4985" filterUnits="userSpaceOnUse" color-interpolation-filters="sRGB">
<feFlood flood-opacity="0" result="BackgroundImageFix"/>
<feColorMatrix in="SourceAlpha" type="matrix" values="0 0 0 0 0 0 0 0 0 0 0 0 0 0 0 0 0 0 127 0" result="hardAlpha"/>
<feOffset dy="4"/>
<feGaussianBlur stdDeviation="2"/>
<feComposite in2="hardAlpha" operator="out"/>
<feColorMatrix type="matrix" values="0 0 0 0 0 0 0 0 0 0 0 0 0 0 0 0 0 0 0.25 0"/>
<feBlend mode="normal" in2="BackgroundImageFix" result="effect1_dropShadow_1230_4467"/>
<feBlend mode="normal" in="SourceGraphic" in2="effect1_dropShadow_1230_4467" result="shape"/>
</filter>
</defs>
</svg>
