<svg width="51" height="61" viewBox="0 0 51 61" fill="none" xmlns="http://www.w3.org/2000/svg">
<path fill-rule="evenodd" clip-rule="evenodd" d="M0.495117 1.74129C0.495117 1.33191 0.822837 1.00249 1.24578 1.00564L29.1822 1.21358C29.4552 1.21562 29.8277 1.3738 30.0151 1.5677L36.3205 8.09333L41.7861 13.4622C41.9772 13.6499 42.1319 14.0189 42.1315 14.296L42.0803 49.97C42.0798 50.3771 41.7445 50.7072 41.3399 50.7072H1.23454C0.826167 50.7072 0.495117 50.3766 0.495117 49.9659V1.74129Z" fill="#F5F8FC"/>
<path fill-rule="evenodd" clip-rule="evenodd" d="M41.3374 49.9645L41.3885 14.2948C41.3887 14.2182 41.3147 14.0403 41.2653 13.9918L35.7861 8.6092L29.4807 2.08358C29.4326 2.03384 29.2508 1.95658 29.1763 1.95602L1.23987 1.74808C1.2388 1.74807 1.23796 1.74797 1.2373 1.7478V49.9645H41.3374Z" stroke="#323232" stroke-width="1.48515"/>
<rect x="7.17871" y="18.5732" width="27.9703" height="1.50628" rx="0.753138" fill="#4A90E2"/>
<rect x="7.17871" y="25.1006" width="27.9703" height="1.50628" rx="0.753138" fill="#4A90E2"/>
<rect x="20.2979" y="38.1548" width="7.92079" height="1.50628" rx="0.753138" fill="#4A90E2"/>
<rect x="7.17871" y="31.6277" width="21.2871" height="1.50628" rx="0.753138" fill="#4A90E2"/>
<path d="M29.0459 2.38403V14.1549C29.0459 14.4289 29.2602 14.6497 29.5451 14.648L41.3905 14.5772" stroke="#323232" stroke-width="1.48515"/>
<path fill-rule="evenodd" clip-rule="evenodd" d="M46.6669 20.8047C46.7667 20.7049 46.928 20.7044 47.0214 20.7978L49.0897 22.8661C49.1857 22.962 49.1865 23.1167 49.0827 23.2205L35.1516 37.1517C35.0518 37.2515 34.8767 37.3695 34.7439 37.4219L31.3863 38.746C31.261 38.7954 31.1938 38.7386 31.2425 38.6021L32.472 35.15C32.5179 35.0211 32.632 34.8397 32.7358 34.7359L46.6669 20.8047Z" fill="#4A90E2"/>
<path fill-rule="evenodd" clip-rule="evenodd" d="M46.1419 20.2798C46.5274 19.8943 47.1588 19.8851 47.5465 20.2728L49.6148 22.3411C50.0049 22.7312 49.9975 23.3561 49.6078 23.7457L35.6767 37.6769C35.504 37.8495 35.2429 38.0234 35.0163 38.1128L31.6588 39.4369C30.9411 39.7199 30.28 39.0912 30.5429 38.353L31.7724 34.901C31.8561 34.666 32.0307 34.3909 32.2107 34.2109L46.1419 20.2798Z" stroke="#323232" stroke-width="1.48515"/>
<rect x="44.2959" y="21.9683" width="5.12466" height="1.00418" rx="0.49505" transform="rotate(45 44.2959 21.9683)" fill="#323232"/>
<rect x="32.8145" y="33.4492" width="5.12466" height="1.00418" rx="0.49505" transform="rotate(45 32.8145 33.4492)" fill="#323232"/>
<path fill-rule="evenodd" clip-rule="evenodd" d="M11.8814 37.5261L8.9934 39.7266L7.66211 42.6087L8.08828 45.6167L9.21305 47.9304L11.0254 49.1946V50.7955L12.0779 51.8849L11.5727 53.0102L11.5382 54.602L12.4116 55.025L11.2121 56.5135L11.3232 58.4528L13.4464 59.8405L15.6035 57.9838L15.5834 48.9158L18.5977 46.4524L19.1794 41.8509L17.4079 39.0793L14.1169 37.5769L11.8814 37.5261Z" fill="#F5F8FC"/>
<path fill-rule="evenodd" clip-rule="evenodd" d="M10.7354 51.4627C10.5335 51.2696 10.4232 50.9995 10.4312 50.7182L10.4402 49.4634C7.67541 48.15 6.21425 45.0856 6.91951 42.0797C7.62478 39.0739 10.3089 36.9261 13.3868 36.9047C16.4647 36.8823 19.1185 38.9921 19.7811 41.9882C20.4437 44.9843 18.9387 48.0698 16.155 49.4227L16.0969 57.5819C16.0957 57.844 15.9896 58.0962 15.8024 58.2824L13.8326 60.2351C13.4926 60.5735 12.947 60.5773 12.6118 60.2437L10.6695 58.3189C10.4865 58.1367 10.3842 57.8883 10.3849 57.6282L10.3919 56.6431C10.3966 56.3668 10.509 56.1016 10.7052 55.9042L11.4514 55.158L10.8285 54.535C10.3614 54.068 10.3669 53.3054 10.8406 52.8316L11.4725 52.1998L10.7354 51.4627ZM15.2482 48.3099C17.5446 47.367 18.8735 44.9381 18.4178 42.5169C17.9621 40.0957 15.8495 38.3613 13.3752 38.3818C10.906 38.3986 8.77001 40.1623 8.27986 42.5891C7.78971 45.0159 9.08277 47.4255 11.3644 48.3373C11.5814 48.4239 11.7223 48.6341 11.7208 48.8688L11.7078 50.7L12.6604 51.6526C12.9481 51.9402 12.9448 52.4099 12.653 52.7017L11.7649 53.5898L12.6433 54.4682C12.9309 54.7559 12.9276 55.2256 12.6359 55.5173L11.6683 56.4848L11.6627 57.2812L13.232 58.8504L14.8235 57.2588L14.8843 48.8465C14.8861 48.6117 15.03 48.3995 15.2482 48.3099ZM11.8342 44.9342C12.6539 45.7539 13.9924 45.7444 14.8238 44.913C15.6552 44.0816 15.6646 42.7432 14.8449 41.9234C14.0252 41.1037 12.6867 41.1132 11.8553 41.9445C11.0239 42.7759 11.0144 44.1144 11.8342 44.9342ZM14.0032 44.1144C14.3811 43.7365 14.3854 43.1281 14.0128 42.7555L14.0142 42.7541C13.835 42.575 13.5909 42.4754 13.3358 42.4775C13.0806 42.4795 12.8353 42.583 12.6539 42.7651C12.276 43.143 12.2717 43.7514 12.6443 44.124C13.0169 44.4966 13.6253 44.4923 14.0032 44.1144Z" fill="#323232"/>
</svg>
