<svg width="16" height="16" viewBox="0 0 16 16" fill="none" xmlns="http://www.w3.org/2000/svg">
<path fill-rule="evenodd" clip-rule="evenodd" d="M2.30832 15.1148C2.86506 15.6815 3.59603 15.9649 4.32699 15.9649C5.05855 15.9649 5.78951 15.6815 6.34595 15.1136L10.3605 11.0221C10.9003 10.4727 11.1972 9.74334 11.1972 8.96538C11.1966 8.18953 10.9003 7.45897 10.3605 6.90923L9.13943 5.66455L8.07129 6.75285L9.29232 7.99753C9.54625 8.25625 9.6864 8.6001 9.6864 8.96568C9.6864 9.33066 9.54625 9.67451 9.29232 9.93323L5.27721 14.0253C4.75277 14.559 3.90062 14.559 3.37618 14.0253L2.15514 12.7806C1.63069 12.2469 1.63069 11.3784 2.15514 10.8437L4.16195 8.79844L3.09381 7.71014L1.0864 9.75542C-0.0264913 10.8905 -0.0258988 12.7353 1.0864 13.8692L2.30832 15.1148Z" fill="#717171"/>
<path fill-rule="evenodd" clip-rule="evenodd" d="M13.6475 1.0731C13.1082 0.523065 12.3918 0.219971 11.6288 0.219971H11.6277C10.865 0.219971 10.1479 0.523065 9.60869 1.0719L5.59476 5.16276C5.05432 5.7128 4.75684 6.44276 4.75684 7.22042C4.75684 7.99688 5.05372 8.72805 5.59358 9.27718L6.81461 10.5213L7.88335 9.43295L6.66172 8.18888C6.40839 7.93076 6.26765 7.58631 6.26765 7.22073C6.26765 6.85454 6.40839 6.51069 6.66232 6.25257L10.6774 2.1605C10.9308 1.90239 11.2682 1.75959 11.6282 1.75959H11.6288C11.9871 1.75959 12.3245 1.90239 12.5785 2.1605L13.7995 3.40578C14.0528 3.6639 14.193 4.00774 14.193 4.37393C14.193 4.73891 14.0528 5.08397 13.7995 5.34208L11.7921 7.38797L12.8602 8.47627L14.8677 6.43039C15.4069 5.88156 15.7038 5.15039 15.7044 4.37363C15.7044 3.59657 15.4069 2.86601 14.8677 2.31688L13.6475 1.0731Z" fill="#717171"/>
</svg>
