<svg width="19" height="22" viewBox="0 0 19 22" fill="none" xmlns="http://www.w3.org/2000/svg">
<path fill-rule="evenodd" clip-rule="evenodd" d="M14.328 14.7188L18.246 20.3145C18.5769 20.7866 18.4622 21.4375 17.9896 21.7684C17.7538 21.9337 17.4728 21.9876 17.2098 21.9412C16.9469 21.8949 16.7014 21.7481 16.5362 21.5121L12.6185 15.9171C10.9953 16.7762 9.1452 17.0727 7.30771 16.7487C5.1236 16.3636 3.22041 15.1511 1.94817 13.3344C0.676382 11.5176 0.187742 9.31427 0.572858 7.13017C0.957973 4.94607 2.17053 3.04269 3.98738 1.7707C5.80406 0.498479 8.00718 0.0100137 10.1913 0.395131C12.3752 0.780213 14.2786 1.99277 15.5508 3.80965C17.974 7.26984 17.3805 11.9524 14.328 14.7188ZM2.62851 7.49243C2.34026 9.12721 2.70591 10.7766 3.65824 12.1367C4.61057 13.4967 6.03524 14.4044 7.67027 14.6925C9.30507 14.9808 10.9547 14.6152 12.3147 13.6628C15.122 11.697 15.8067 7.814 13.841 5.00682C12.8887 3.64676 11.4636 2.739 9.82883 2.45074C8.19383 2.16245 6.54463 2.52813 5.18477 3.48049C3.8245 4.43277 2.91681 5.85744 2.62851 7.49243Z" fill="#717171"/>
</svg>
