<svg width="19" height="17" viewBox="0 0 19 17" fill="none" xmlns="http://www.w3.org/2000/svg">
<path d="M4.49999 6.5H1.49999C1.53747 8.83146 1.53747 10.9981 1.49999 13C1.44377 16.0028 3.7827 15.5 5.49999 15.5" stroke="#193B5B"/>
<path fill-rule="evenodd" clip-rule="evenodd" d="M5 0H18C18.5523 0 19 0.447715 19 1V14C19 15.1046 18.1046 16 17 16H4V1C4 0.447715 4.44772 0 5 0Z" fill="white"/>
<path fill-rule="evenodd" clip-rule="evenodd" d="M4.5 15.5H17C17.8284 15.5 18.5 14.8284 18.5 14V1C18.5 0.723858 18.2761 0.5 18 0.5H5C4.72386 0.5 4.5 0.723858 4.5 1V15.5Z" stroke="#193B5B"/>
<rect x="6" y="2" width="3" height="3" fill="#193B5B"/>
<rect x="10" y="2" width="7" height="1" fill="#193B5B"/>
<rect x="10" y="4" width="7" height="1" fill="#193B5B"/>
<rect x="6" y="6" width="11" height="2" fill="#193B5B"/>
<rect x="6" y="9" width="11" height="2" fill="#193B5B"/>
<rect x="6" y="12" width="11" height="2" fill="#193B5B"/>
</svg>
