<svg width="18" height="18" viewBox="0 0 18 18" fill="none" xmlns="http://www.w3.org/2000/svg">
<path d="M9 17.5C8.54696 17.5 8.10253 17.4646 7.66925 17.3965L7.59162 17.8904C6.64125 17.7411 5.74025 17.443 4.9132 17.0208L5.14055 16.5754C4.34265 16.1681 3.61735 15.6382 2.98959 15.0104L2.63604 15.364C1.97165 14.6996 1.41065 13.9318 0.979246 13.0868L1.42456 12.8594C1.0259 12.0786 0.744502 11.228 0.603491 10.3308L0.109553 10.4084C0.0374397 9.94951 0 9.47913 0 9H0.5C0.5 8.54696 0.535398 8.10253 0.603491 7.66925L0.109553 7.59162C0.258908 6.64125 0.556997 5.74025 0.979246 4.9132L1.42456 5.14055C1.83193 4.34265 2.36183 3.61735 2.98959 2.98959L2.63604 2.63604C3.30043 1.97164 4.06822 1.41065 4.9132 0.979246L5.14055 1.42456C5.92142 1.0259 6.77196 0.744502 7.66925 0.603491L7.59162 0.109553C8.05049 0.0374397 8.52087 0 9 0V0.5C9.45304 0.5 9.89747 0.535398 10.3308 0.603491L10.4084 0.109553C11.3588 0.258908 12.2598 0.556997 13.0868 0.979246L12.8594 1.42456C13.6573 1.83193 14.3826 2.36183 15.0104 2.98959L15.364 2.63604C16.0284 3.30043 16.5894 4.06822 17.0208 4.9132L16.5754 5.14055C16.9741 5.92142 17.2555 6.77196 17.3965 7.66925L17.8904 7.59162C17.9626 8.05049 18 8.52087 18 9H17.5C17.5 9.45304 17.4646 9.89747 17.3965 10.3308L17.8904 10.4084C17.7411 11.3588 17.443 12.2598 17.0208 13.0868L16.5754 12.8594C16.1681 13.6573 15.6382 14.3826 15.0104 15.0104L15.364 15.364C14.6996 16.0284 13.9318 16.5894 13.0868 17.0208L12.8594 16.5754C12.0786 16.9741 11.228 17.2555 10.3308 17.3965L10.4084 17.8904C9.94951 17.9626 9.47913 18 9 18V17.5Z" fill="white" stroke="#C4C8CA" stroke-dasharray="3"/>
</svg>
