<svg width="20" height="12" viewBox="0 0 20 12" fill="none" xmlns="http://www.w3.org/2000/svg">
<path fill-rule="evenodd" clip-rule="evenodd" d="M9.68921 0C4.33798 0 0 5.80883 0 5.80883C0 5.80883 4.33798 11.675 9.68921 11.675C15.0404 11.675 19.3784 5.80883 19.3784 5.80883C19.3784 5.80883 15.0404 0 9.68921 0Z" fill="white"/>
<path fill-rule="evenodd" clip-rule="evenodd" d="M0.637695 5.81039C0.782368 5.98809 0.948535 6.18355 1.13499 6.39269C1.73252 7.06293 2.41193 7.73351 3.15903 8.35839C5.26915 10.1233 7.48597 11.175 9.68956 11.175C11.8931 11.175 14.11 10.1233 16.2201 8.35839C16.9672 7.73351 17.6466 7.06293 18.2441 6.39269C18.4306 6.18355 18.5968 5.98809 18.7414 5.81039C18.5971 5.63497 18.4315 5.44208 18.2458 5.23575C17.6483 4.57215 16.969 3.90821 16.2219 3.28949C14.1116 1.54165 11.8943 0.5 9.68956 0.5C7.48481 0.5 5.26752 1.54165 3.15717 3.28949C2.41014 3.90821 1.73081 4.57215 1.13336 5.23575C0.947595 5.44208 0.781976 5.63497 0.637695 5.81039Z" stroke="#717171"/>
<path fill-rule="evenodd" clip-rule="evenodd" d="M12.7819 5.83741C12.7819 7.56413 11.3972 8.96413 9.68929 8.96413C7.98105 8.96413 6.59668 7.56413 6.59668 5.83741C6.59668 4.11069 7.98105 2.71069 9.68929 2.71069C11.3972 2.71069 12.7819 4.11069 12.7819 5.83741Z" fill="#717171"/>
</svg>
