<svg width="19" height="26" viewBox="0 0 19 26" fill="none" xmlns="http://www.w3.org/2000/svg">
<g filter="url(#filter0_d_1230_4433)">
<path fill-rule="evenodd" clip-rule="evenodd" d="M0.5 16.0781L2.03269 14.8061L3.86247 16.5033L5.7114 14.7879L7.50415 16.4625L9.40106 14.7335L11.0577 16.4315L12.7253 14.7649L14.5 16.1282V0.850117C14.5 0.662112 14.3393 0.5 14.1506 0.5H0.849443C0.659672 0.5 0.5 0.65908 0.5 0.850117V16.0781Z" stroke="#717171"/>
<path fill-rule="evenodd" clip-rule="evenodd" d="M8.7492 7.38656C8.51569 7.29692 8.28055 7.21489 8.04376 7.14047L8.21642 5.03979C8.34468 5.07023 8.46225 5.10913 8.56914 5.15649C8.67602 5.20385 8.77222 5.25036 8.85773 5.29603C8.94324 5.3417 9.02052 5.3806 9.08959 5.41274C9.15865 5.44487 9.21785 5.46094 9.26718 5.46094C9.33295 5.46094 9.38886 5.44403 9.43491 5.4102C9.48095 5.37637 9.52535 5.32563 9.5681 5.25798L9.86409 4.79623C9.67992 4.61356 9.46122 4.44866 9.20798 4.30151C8.95474 4.15436 8.65383 4.05203 8.30521 3.99452L8.38414 3H7.93523C7.83985 3 7.76257 3.03214 7.70337 3.09641C7.64417 3.16068 7.61128 3.23341 7.60471 3.31459L7.55044 3.95393C7.18867 3.97084 6.86802 4.04188 6.58848 4.16704C6.30893 4.29221 6.07296 4.45119 5.88057 4.64401C5.68817 4.83683 5.54265 5.05586 5.44398 5.30111C5.34532 5.54635 5.29599 5.79752 5.29599 6.05461C5.29599 6.39965 5.3519 6.68718 5.46372 6.91721C5.57554 7.14723 5.72271 7.33751 5.90523 7.48804C6.08776 7.63858 6.29331 7.75951 6.52188 7.85084C6.75045 7.94218 6.98148 8.02167 7.21499 8.08932L7.03246 10.3574C6.84829 10.3236 6.68878 10.2712 6.55394 10.2002C6.4191 10.1291 6.29906 10.0589 6.19382 9.98958C6.08858 9.92023 5.99485 9.85934 5.91263 9.80691C5.83041 9.75448 5.75313 9.72826 5.68078 9.72826C5.61829 9.72826 5.55991 9.74433 5.50565 9.77646C5.45138 9.8086 5.40781 9.85004 5.37492 9.90078L5 10.4742C5.23679 10.7143 5.52456 10.9156 5.8633 11.078C6.20205 11.2403 6.56381 11.3486 6.9486 11.4027L6.8598 12.4886H7.30872C7.4008 12.4886 7.47727 12.4556 7.53811 12.3896C7.59895 12.3237 7.63102 12.2518 7.6343 12.174L7.6935 11.4281C8.06185 11.4044 8.38908 11.3258 8.6752 11.1921C8.96132 11.0585 9.20305 10.886 9.40037 10.6746C9.5977 10.4632 9.74734 10.2196 9.84929 9.94391C9.95124 9.66821 10.0022 9.37307 10.0022 9.05848C10.0022 8.7405 9.94467 8.4758 9.82956 8.26438C9.71445 8.05296 9.56399 7.87621 9.37817 7.73414C9.19236 7.59206 8.9827 7.4762 8.7492 7.38656ZM7.46648 5.01442C7.2823 5.0381 7.12609 5.07785 6.99783 5.13366C6.86956 5.18948 6.76432 5.25798 6.6821 5.33916C6.59988 5.42035 6.53986 5.51168 6.50204 5.61316C6.46422 5.71465 6.44531 5.8212 6.44531 5.93283C6.44531 6.06138 6.46751 6.17385 6.51191 6.27026C6.55631 6.36667 6.61715 6.45293 6.69444 6.52904C6.77172 6.60515 6.86299 6.67281 6.96823 6.732C7.07347 6.7912 7.18857 6.84617 7.31355 6.89691L7.46648 5.01442ZM7.7823 10.3777C8.13091 10.3304 8.39483 10.2095 8.57407 10.0149C8.75331 9.82044 8.84293 9.56589 8.84293 9.25129C8.84293 9.12275 8.82073 9.01027 8.77633 8.91387C8.73193 8.81746 8.66945 8.73204 8.58887 8.65762C8.50829 8.5832 8.41374 8.51893 8.30521 8.46481C8.19668 8.41068 8.07829 8.35994 7.95003 8.31258L7.7823 10.3777Z" fill="#717171"/>
</g>
<defs>
<filter id="filter0_d_1230_4433" x="-4" y="0" width="23" height="25.1853" filterUnits="userSpaceOnUse" color-interpolation-filters="sRGB">
<feFlood flood-opacity="0" result="BackgroundImageFix"/>
<feColorMatrix in="SourceAlpha" type="matrix" values="0 0 0 0 0 0 0 0 0 0 0 0 0 0 0 0 0 0 127 0" result="hardAlpha"/>
<feOffset dy="4"/>
<feGaussianBlur stdDeviation="2"/>
<feComposite in2="hardAlpha" operator="out"/>
<feColorMatrix type="matrix" values="0 0 0 0 0 0 0 0 0 0 0 0 0 0 0 0 0 0 0.25 0"/>
<feBlend mode="normal" in2="BackgroundImageFix" result="effect1_dropShadow_1230_4433"/>
<feBlend mode="normal" in="SourceGraphic" in2="effect1_dropShadow_1230_4433" result="shape"/>
</filter>
</defs>
</svg>
