<svg width="100" height="24" viewBox="0 0 100 24" fill="none" xmlns="http://www.w3.org/2000/svg">
<path fill-rule="evenodd" clip-rule="evenodd" d="M91.6361 4.78491H98.7354C99.434 4.78491 100 5.35132 100 6.04993V17.4351C100 18.1334 99.434 18.7001 98.7354 18.7001H91.6361C90.9375 18.7001 90.3711 18.1334 90.3711 17.4351V6.04993C90.3711 5.35132 90.9375 4.78491 91.6361 4.78491Z" fill="#ED2D2D"/>
<path fill-rule="evenodd" clip-rule="evenodd" d="M95.1558 14.4253H93.6751V9.20704H94.9581C97.1241 9.20704 97.0846 14.4253 95.1558 14.4253ZM94.9104 7.75891H92.0508V15.9154H94.9104C99.4695 15.9154 99.2851 7.75891 94.9104 7.75891Z" fill="#FEFEFE"/>
<path fill-rule="evenodd" clip-rule="evenodd" d="M81.6068 4.39099H88.6947C89.3933 4.39099 89.9597 4.9574 89.9597 5.65601V18.0089C89.9597 18.7075 89.3933 19.274 88.6947 19.274H81.6068C80.9082 19.274 80.3418 18.7075 80.3418 18.0089V5.65601C80.3418 4.9574 80.9082 4.39099 81.6068 4.39099Z" fill="#ED2D2D"/>
<path fill-rule="evenodd" clip-rule="evenodd" d="M82.6152 7.75891V15.9158H87.2009V14.5321H84.0909V12.4632H87.2009V11.1324H84.0646L84.0384 9.15581H87.2009V7.75891H82.6152Z" fill="#FEFEFE"/>
<path fill-rule="evenodd" clip-rule="evenodd" d="M71.5873 3.34082H78.6452C79.3438 3.34082 79.9102 3.90723 79.9102 4.60584V18.4686C79.9102 19.1672 79.3438 19.7336 78.6452 19.7336H71.5873C70.8887 19.7336 70.3223 19.1672 70.3223 18.4686V4.60584C70.3223 3.90723 70.8887 3.34082 71.5873 3.34082Z" fill="#ED2D2D"/>
<path fill-rule="evenodd" clip-rule="evenodd" d="M73.8699 15.8729H75.4707L75.4771 9.11611H77.2399V7.55981H72.0166V9.10852L73.8793 9.11611L73.8699 15.8729Z" fill="#FEFEFE"/>
<path fill-rule="evenodd" clip-rule="evenodd" d="M61.5189 2.42664H68.6435C69.3421 2.42664 69.9085 2.99305 69.9085 3.69166V20.4389C69.9085 21.1376 69.3421 21.704 68.6435 21.704H61.5189C60.8203 21.704 60.2539 21.1376 60.2539 20.4389V3.69166C60.2539 2.99305 60.8203 2.42664 61.5189 2.42664Z" fill="#ED2D2D"/>
<path fill-rule="evenodd" clip-rule="evenodd" d="M63.9097 12.9592L64.8221 9.62552L65.7345 12.9592H63.9097ZM65.7484 7.56006H63.8379L61.3604 15.8728H63.0473L63.5084 14.4892H66.1437L66.5128 15.8728H68.2127L65.7484 7.56006Z" fill="#FEFEFE"/>
<path fill-rule="evenodd" clip-rule="evenodd" d="M51.559 0H58.5337C59.2323 0 59.7987 0.566413 59.7987 1.26502V22.4095C59.7987 23.1081 59.2323 23.6745 58.5337 23.6745H51.559C50.8604 23.6745 50.2939 23.1081 50.2939 22.4095V1.26502C50.2939 0.566413 50.8604 0 51.559 0Z" fill="#ED2D2D"/>
<path fill-rule="evenodd" clip-rule="evenodd" d="M56.9194 10.2099L58.1711 9.53781C57.2223 7.23168 55.056 7.14661 53.4801 8.19373C51.7141 9.3664 50.871 14.2421 54.2574 15.8496C56.4712 16.6798 57.9206 15.0856 58.1711 13.9654C57.5759 13.6887 56.7875 13.3857 56.7875 13.3857C55.9311 15.7576 52.9921 13.9654 53.7246 10.997C54.5079 7.82466 56.8137 9.51156 56.9194 10.2099Z" fill="#FEFEFE"/>
<path fill-rule="evenodd" clip-rule="evenodd" d="M48.5613 23.6745H41.4623C40.7637 23.6745 40.1973 23.1081 40.1973 22.4095V1.26502C40.1973 0.566413 40.7637 0 41.4623 0H48.5613C49.2599 0 49.8263 0.566413 49.8263 1.26502V22.4095C49.8263 23.1081 49.2599 23.6745 48.5613 23.6745Z" fill="#ED2D2D"/>
<path fill-rule="evenodd" clip-rule="evenodd" d="M43.9922 15.8497H45.4811V7.67993H43.9922V15.8497Z" fill="#FEFEFE"/>
<path fill-rule="evenodd" clip-rule="evenodd" d="M38.5406 21.7039H31.4135C30.7149 21.7039 30.1484 21.1375 30.1484 20.4389V3.641C30.1484 2.94207 30.7149 2.37598 31.4135 2.37598H38.5406C39.2392 2.37598 39.8056 2.94207 39.8056 3.641V20.4389C39.8056 21.1375 39.2392 21.7039 38.5406 21.7039Z" fill="#ED2D2D"/>
<path fill-rule="evenodd" clip-rule="evenodd" d="M33.0811 7.67993V15.8497H37.3372V14.5585H34.5649V7.67993H33.0811Z" fill="#FEFEFE"/>
<path fill-rule="evenodd" clip-rule="evenodd" d="M28.5278 19.7803H21.3549C20.6563 19.7803 20.0898 19.2139 20.0898 18.5153V4.65259C20.0898 3.95399 20.6563 3.38757 21.3549 3.38757H28.5278C29.2265 3.38757 29.7929 3.95399 29.7929 4.65259V18.5153C29.7929 19.2139 29.2265 19.7803 28.5278 19.7803Z" fill="#ED2D2D"/>
<path fill-rule="evenodd" clip-rule="evenodd" d="M25.3858 11.488H24.0155V9.1294H25.3858C26.7562 9.1294 26.7562 11.488 25.3858 11.488ZM26.0446 7.67969H22.5V15.8498H24.0417V13.0494C29.1031 13.5589 29.1018 8.12782 26.0446 7.67969Z" fill="#FEFEFE"/>
<path fill-rule="evenodd" clip-rule="evenodd" d="M18.402 19.2837H11.4115C10.7132 19.2837 10.1465 18.7173 10.1465 18.0187V5.66578C10.1465 4.96717 10.7132 4.40076 11.4115 4.40076H18.402C19.1006 4.40076 19.667 4.96717 19.667 5.66578V18.0187C19.667 18.7173 19.1006 19.2837 18.402 19.2837Z" fill="#ED2D2D"/>
<path fill-rule="evenodd" clip-rule="evenodd" d="M12.3535 7.75891V15.9158H16.9392V14.5321H13.8295V12.4632H16.9392V11.1324H13.8029L13.7767 9.15581H16.9392V7.75891H12.3535Z" fill="#FEFEFE"/>
<path fill-rule="evenodd" clip-rule="evenodd" d="M8.47943 18.8896H1.26502C0.566413 18.8896 0 18.3232 0 17.6246V6.23975C0 5.54114 0.566413 4.97473 1.26502 4.97473H8.47943C9.17804 4.97473 9.74445 5.54114 9.74445 6.23975V17.6246C9.74445 18.3232 9.17804 18.8896 8.47943 18.8896Z" fill="#ED2D2D"/>
<path fill-rule="evenodd" clip-rule="evenodd" d="M5.11617 11.6262H3.76513V9.30143H5.11617C6.39542 9.30143 6.46721 11.6262 5.11617 11.6262ZM6.2762 12.8334C8.28758 12.2787 8.3328 7.83337 5.43717 7.83337H2.09277V16.031H3.77715V13.074H4.66203L5.90618 16.031H7.84356L6.2762 12.8334Z" fill="#FEFEFE"/>
</svg>
