<svg width="26" height="26" viewBox="0 0 26 26" fill="none" xmlns="http://www.w3.org/2000/svg">
<path fill-rule="evenodd" clip-rule="evenodd" d="M5.53565 16.3967C5.53565 17.8854 4.31952 19.1016 2.83082 19.1016C1.34211 19.1016 0.125977 17.8854 0.125977 16.3967C0.125977 14.908 1.34211 13.6919 2.83082 13.6919H5.53565V16.3967Z" fill="#E01E5A"/>
<path fill-rule="evenodd" clip-rule="evenodd" d="M6.89844 16.3967C6.89844 14.908 8.11457 13.6919 9.60328 13.6919C11.092 13.6919 12.3081 14.908 12.3081 16.3967V23.1693C12.3081 24.658 11.092 25.8742 9.60328 25.8742C8.11457 25.8742 6.89844 24.658 6.89844 23.1693V16.3967Z" fill="#E01E5A"/>
<path fill-rule="evenodd" clip-rule="evenodd" d="M9.60328 5.53541C8.11457 5.53541 6.89844 4.31928 6.89844 2.83057C6.89844 1.34186 8.11457 0.125732 9.60328 0.125732C11.092 0.125732 12.3081 1.34186 12.3081 2.83057V5.53541H9.60328Z" fill="#36C5F0"/>
<path fill-rule="evenodd" clip-rule="evenodd" d="M9.6034 6.89832C11.0921 6.89832 12.3082 8.11444 12.3082 9.60315C12.3082 11.0919 11.0921 12.308 9.6034 12.308H2.83082C1.34211 12.308 0.125977 11.0919 0.125977 9.60315C0.125977 8.11444 1.34211 6.89832 2.83082 6.89832H9.6034Z" fill="#36C5F0"/>
<path fill-rule="evenodd" clip-rule="evenodd" d="M20.4648 9.60315C20.4648 8.11444 21.681 6.89832 23.1697 6.89832C24.6584 6.89832 25.8745 8.11444 25.8745 9.60315C25.8745 11.0919 24.6584 12.308 23.1697 12.308H20.4648V9.60315Z" fill="#2EB67D"/>
<path fill-rule="evenodd" clip-rule="evenodd" d="M19.1021 9.60315C19.1021 11.0919 17.8859 12.308 16.3972 12.308C14.9085 12.308 13.6924 11.0919 13.6924 9.60315V2.83057C13.6924 1.34186 14.9085 0.125732 16.3972 0.125732C17.8859 0.125732 19.1021 1.34186 19.1021 2.83057V9.60315Z" fill="#2EB67D"/>
<path fill-rule="evenodd" clip-rule="evenodd" d="M16.3972 20.4645C17.8859 20.4645 19.1021 21.6806 19.1021 23.1693C19.1021 24.658 17.8859 25.8742 16.3972 25.8742C14.9085 25.8742 13.6924 24.658 13.6924 23.1693V20.4645H16.3972Z" fill="#ECB22E"/>
<path fill-rule="evenodd" clip-rule="evenodd" d="M16.3972 19.1016C14.9085 19.1016 13.6924 17.8854 13.6924 16.3967C13.6924 14.908 14.9085 13.6919 16.3972 13.6919H23.1698C24.6585 13.6919 25.8746 14.908 25.8746 16.3967C25.8746 17.8854 24.6585 19.1016 23.1698 19.1016H16.3972Z" fill="#ECB22E"/>
</svg>
