<svg width="13" height="14" viewBox="0 0 13 14" fill="none" xmlns="http://www.w3.org/2000/svg">
<path fill-rule="evenodd" clip-rule="evenodd" d="M6.59217 7.29302C8.32042 7.29302 9.72145 5.88428 9.72145 4.14651C9.72145 2.40874 8.32042 1 6.59217 1C4.86392 1 3.46289 2.40874 3.46289 4.14651C3.46289 5.88428 4.86392 7.29302 6.59217 7.29302Z" fill="white" stroke="#717171"/>
<path fill-rule="evenodd" clip-rule="evenodd" d="M3.09529 8.55151L10.2002 8.55151C10.7404 8.55151 11.2133 8.9142 11.3536 9.43605L12.1322 12.3325C12.3035 12.9697 11.926 13.6253 11.289 13.7967C11.1879 13.8239 11.0836 13.8377 10.9788 13.8377H2.21286C1.55326 13.8377 1.01855 13.3027 1.01855 12.6428C1.01855 12.5247 1.03604 12.4073 1.07044 12.2944L1.95287 9.398C2.10608 8.89512 2.56981 8.55151 3.09529 8.55151Z" fill="white"/>
<path fill-rule="evenodd" clip-rule="evenodd" d="M3.09562 8.94971C2.74531 8.94971 2.43615 9.17878 2.33401 9.51403L1.45159 12.4105C1.42865 12.4857 1.41699 12.564 1.41699 12.6427C1.41699 13.0826 1.77346 13.4393 2.21319 13.4393H10.9792C11.049 13.4393 11.1185 13.4301 11.186 13.4119C11.6106 13.2977 11.8623 12.8607 11.7481 12.4358L10.9694 9.5394C10.8759 9.1915 10.5607 8.94971 10.2006 8.94971H3.09562Z" stroke="#717171"/>
<path d="M9.84639 13.2083L9.3457 11.1946" stroke="#717171" stroke-width="0.75" stroke-linecap="round"/>
<path d="M3.33818 13.2083L3.83887 11.1946" stroke="#717171" stroke-width="0.75" stroke-linecap="round"/>
</svg>
