<svg width="18" height="17" viewBox="0 0 18 17" fill="none" xmlns="http://www.w3.org/2000/svg">
<path fill-rule="evenodd" clip-rule="evenodd" d="M7.09823 2.36109C8.09749 0.584618 9.90492 0.588719 10.9019 2.36109L16.9698 13.1485C17.9652 14.9181 17.0332 16.4999 15.0075 16.4999H2.99259C0.960829 16.4999 0.0369069 14.9145 1.0303 13.1485L7.09823 2.36109Z" stroke="#717171"/>
<path fill-rule="evenodd" clip-rule="evenodd" d="M8.08228 13.0062C8.02743 13.1244 8 13.251 8 13.386C8 13.5252 8.02743 13.656 8.08228 13.7784C8.13713 13.9008 8.20992 14.0062 8.30063 14.0948C8.39135 14.1835 8.49789 14.2541 8.62025 14.3069C8.74262 14.3596 8.87342 14.386 9.01266 14.386C9.14768 14.386 9.27532 14.3596 9.39557 14.3069C9.51582 14.2541 9.62025 14.1835 9.70886 14.0948C9.79747 14.0062 9.86814 13.9008 9.92089 13.7784C9.97363 13.656 10 13.5252 10 13.386C10 13.251 9.97363 13.1244 9.92089 13.0062C9.86814 12.8881 9.79747 12.7847 9.70886 12.6961C9.62025 12.6075 9.51582 12.5368 9.39557 12.4841C9.27532 12.4313 9.14768 12.405 9.01266 12.405C8.87342 12.405 8.74262 12.4313 8.62025 12.4841C8.49789 12.5368 8.39135 12.6075 8.30063 12.6961C8.20992 12.7847 8.13713 12.8881 8.08228 13.0062ZM8.21529 4.9999L8.21529 11.4936H9.78491L9.78491 4.9999H8.21529Z" fill="#717171"/>
</svg>
