<svg width="13" height="10" viewBox="0 0 13 10" fill="none" xmlns="http://www.w3.org/2000/svg">
<path fill-rule="evenodd" clip-rule="evenodd" d="M1.63333 4.70049L4.55972 7.6027C4.83194 7.87267 4.83194 8.27763 4.55972 8.5476C4.2875 8.81757 3.87916 8.81757 3.60694 8.5476L0.204163 5.17294C0.068052 5.03796 -3.33786e-06 4.83548 -3.33786e-06 4.70049C-3.33786e-06 4.49801 0.068052 4.29553 0.204163 4.16055L3.60694 0.785892C3.87916 0.515919 4.2875 0.515919 4.55972 0.785892C4.83194 1.05586 4.83194 1.46082 4.55972 1.7308L1.63333 4.70049Z" fill="#717171"/>
<path fill-rule="evenodd" clip-rule="evenodd" d="M11.2972 4.633L8.37082 1.73079C8.0986 1.46082 8.0986 1.05586 8.37082 0.785889C8.64305 0.515917 9.05138 0.515917 9.3236 0.785889L12.7264 4.16054C12.8625 4.29553 12.9305 4.49801 12.9305 4.633C12.9305 4.83548 12.8625 5.03795 12.7264 5.17294L9.3236 8.5476C9.05138 8.81757 8.64305 8.81757 8.37082 8.5476C8.0986 8.27762 8.0986 7.87267 8.37082 7.60269L11.2972 4.633Z" fill="#717171"/>
<path d="M6.41043 8.87379L7.61857 0.668383C7.6655 0.349653 7.44516 0.0532282 7.12643 0.0062994C6.8077 -0.0406294 6.51127 0.179709 6.46435 0.498439L5.25621 8.70384C5.20928 9.02257 5.42962 9.319 5.74835 9.36593C6.06708 9.41285 6.3635 9.19252 6.41043 8.87379Z" fill="#717171"/>
</svg>
