<svg width="50" height="28" viewBox="0 0 50 28" fill="none" xmlns="http://www.w3.org/2000/svg">
<rect x="4.55566" y="2" width="41" height="24" fill="#F5F8FC"/>
<rect x="4.17383" y="1" width="41.6508" height="25.8082" rx="1.81861" stroke="#323232" stroke-width="2"/>
<path fill-rule="evenodd" clip-rule="evenodd" d="M0 25.238H50V26.8013C50 27.4633 49.4634 27.9999 48.8014 27.9999H1.19863C0.536645 27.9999 0 27.4633 0 26.8013V25.238Z" fill="#323232"/>
<rect x="14" y="7" width="25" height="2" rx="1" fill="#4A90E2"/>
<rect x="14" y="11" width="17" height="2" rx="1" fill="#4A90E2"/>
<rect x="14" y="15" width="21" height="2" rx="1" fill="#4A90E2"/>
<path fill-rule="evenodd" clip-rule="evenodd" d="M10.5103 7.96901L8.16371 6.05372C7.94543 5.80579 7.94543 5.43388 8.16371 5.18595C8.382 4.93802 8.70943 4.93802 8.92771 5.18595L11.6563 7.53512C11.7654 7.65909 11.82 7.84504 11.82 7.96901C11.82 8.15496 11.7654 8.34091 11.6563 8.46488L8.92771 10.814C8.70943 11.062 8.382 11.062 8.16371 10.814C7.94543 10.5661 7.94543 10.1942 8.16371 9.94628L10.5103 7.96901Z" fill="#4A90E2"/>
</svg>
