<svg width="78" height="66" viewBox="0 0 78 66" fill="none" xmlns="http://www.w3.org/2000/svg">
<path fill-rule="evenodd" clip-rule="evenodd" d="M27.845 29.9762L23.3354 31.2693C22.8045 31.4215 22.2507 31.1146 22.0985 30.5837C22.0481 30.4078 22.0469 30.2214 22.095 30.0448L23.39 25.2985C21.8734 22.879 21 20.0384 21 17C21 8.16344 28.3873 1 37.5 1C46.6127 1 54 8.16344 54 17C54 25.8366 46.6127 33 37.5 33C33.8947 33 30.5595 31.8787 27.845 29.9762Z" fill="white" stroke="#323232" stroke-width="2"/>
<path fill-rule="evenodd" clip-rule="evenodd" d="M31.3462 20C32.3658 20 33.1923 19.1046 33.1923 18C33.1923 16.8954 32.3658 16 31.3462 16C30.3266 16 29.5 16.8954 29.5 18C29.5 19.1046 30.3266 20 31.3462 20Z" fill="#4A90E2"/>
<path fill-rule="evenodd" clip-rule="evenodd" d="M37.5005 20C38.5201 20 39.3466 19.1046 39.3466 18C39.3466 16.8954 38.5201 16 37.5005 16C36.4808 16 35.6543 16.8954 35.6543 18C35.6543 19.1046 36.4808 20 37.5005 20Z" fill="#4A90E2"/>
<path fill-rule="evenodd" clip-rule="evenodd" d="M43.6538 20C44.6734 20 45.4999 19.1046 45.4999 18C45.4999 16.8954 44.6734 16 43.6538 16C42.6342 16 41.8076 16.8954 41.8076 18C41.8076 19.1046 42.6342 20 43.6538 20Z" fill="#4A90E2"/>
<path fill-rule="evenodd" clip-rule="evenodd" d="M14.0002 48.8003C18.3414 48.8003 21.8607 45.2633 21.8607 40.9001C21.8607 36.537 18.3414 33 14.0002 33C9.65892 33 6.13965 36.537 6.13965 40.9001C6.13965 45.2633 9.65892 48.8003 14.0002 48.8003Z" fill="#4A90E2" fill-opacity="0.85" stroke="#323232" stroke-width="2"/>
<path fill-rule="evenodd" clip-rule="evenodd" d="M5.21562 51.9603H23.0627C24.4195 51.9603 25.6074 52.871 25.9598 54.1812L27.9156 61.4534C28.3459 63.0534 27.3977 64.6993 25.7977 65.1296C25.5436 65.1979 25.2816 65.2326 25.0185 65.2326H2.99902C1.34217 65.2326 -0.000976562 63.8894 -0.000976562 62.2326C-0.000976562 61.9362 0.0429479 61.6414 0.129365 61.3579L2.34596 54.0856C2.7308 52.8231 3.89567 51.9603 5.21562 51.9603Z" fill="#4A90E2" fill-opacity="0.85"/>
<path fill-rule="evenodd" clip-rule="evenodd" d="M5.21562 52.9603C4.33565 52.9603 3.55907 53.5355 3.30251 54.3772L1.08592 61.6494C1.02831 61.8385 0.999023 62.035 0.999023 62.2326C0.999023 63.3371 1.89445 64.2326 2.99902 64.2326H25.0185C25.1939 64.2326 25.3686 64.2095 25.538 64.1639C26.6046 63.8771 27.2368 62.7798 26.9499 61.7131L24.9941 54.4409C24.7592 53.5674 23.9672 52.9603 23.0627 52.9603H5.21562Z" stroke="#323232" stroke-width="2"/>
<path d="M22.1747 63.6525L20.917 58.5964" stroke="#323232" stroke-width="2" stroke-linecap="round"/>
<path d="M5.82532 63.6525L7.08301 58.5964" stroke="#323232" stroke-width="2" stroke-linecap="round"/>
<path fill-rule="evenodd" clip-rule="evenodd" d="M63.0002 48.8003C67.3414 48.8003 70.8607 45.2633 70.8607 40.9001C70.8607 36.537 67.3414 33 63.0002 33C58.6589 33 55.1396 36.537 55.1396 40.9001C55.1396 45.2633 58.6589 48.8003 63.0002 48.8003Z" fill="#4A90E2" fill-opacity="0.85" stroke="#323232" stroke-width="2"/>
<path fill-rule="evenodd" clip-rule="evenodd" d="M54.2156 51.9603H72.0627C73.4195 51.9603 74.6074 52.871 74.9598 54.1812L76.9156 61.4534C77.3459 63.0534 76.3977 64.6993 74.7977 65.1296C74.5436 65.1979 74.2816 65.2326 74.0185 65.2326H51.999C50.3422 65.2326 48.999 63.8894 48.999 62.2326C48.999 61.9362 49.0429 61.6414 49.1294 61.3579L51.346 54.0856C51.7308 52.8231 52.8957 51.9603 54.2156 51.9603Z" fill="#4A90E2" fill-opacity="0.85"/>
<path fill-rule="evenodd" clip-rule="evenodd" d="M54.2156 52.9603C53.3357 52.9603 52.5591 53.5355 52.3025 54.3772L50.0859 61.6494C50.0283 61.8385 49.999 62.035 49.999 62.2326C49.999 63.3371 50.8945 64.2326 51.999 64.2326H74.0185C74.1939 64.2326 74.3686 64.2095 74.538 64.1639C75.6046 63.8771 76.2368 62.7798 75.9499 61.7131L73.9941 54.4409C73.7592 53.5674 72.9672 52.9603 72.0627 52.9603H54.2156Z" stroke="#323232" stroke-width="2"/>
<path d="M71.1747 63.6525L69.917 58.5964" stroke="#323232" stroke-width="2" stroke-linecap="round"/>
<path d="M54.8253 63.6525L56.083 58.5964" stroke="#323232" stroke-width="2" stroke-linecap="round"/>
</svg>
