<svg width="6" height="11" viewBox="0 0 6 11" fill="none" xmlns="http://www.w3.org/2000/svg">
<path fill-rule="evenodd" clip-rule="evenodd" d="M3.22549 8.55294C3.62963 8.49804 3.93559 8.35784 4.14338 8.13235C4.35117 7.90686 4.45507 7.61177 4.45507 7.24706C4.45507 7.09804 4.42933 6.96765 4.37786 6.85588C4.32639 6.74412 4.25395 6.6451 4.16054 6.55882C4.06713 6.47255 3.95752 6.39804 3.8317 6.33529C3.70588 6.27255 3.56863 6.21373 3.41993 6.15882L3.22549 8.55294ZM2.85936 2.3353C2.64585 2.36275 2.46475 2.40883 2.31606 2.47353C2.16737 2.53824 2.04536 2.61765 1.95005 2.71177C1.85473 2.80589 1.78515 2.91177 1.74131 3.02941C1.69746 3.14706 1.67554 3.27059 1.67554 3.4C1.67554 3.54902 1.70127 3.67941 1.75274 3.79118C1.80421 3.90294 1.87475 4.00294 1.96434 4.09118C2.05394 4.17941 2.15974 4.25785 2.28175 4.32647C2.40375 4.3951 2.53719 4.45883 2.68207 4.51765L2.85936 2.3353ZM3.52859 4.8C3.80311 4.88628 4.07571 4.98137 4.34641 5.08529C4.6171 5.18922 4.86016 5.32353 5.07557 5.48824C5.29099 5.65294 5.46541 5.85784 5.59886 6.10294C5.7323 6.34804 5.79902 6.6549 5.79902 7.02353C5.79902 7.38824 5.73992 7.73039 5.62173 8.05C5.50354 8.36961 5.33007 8.65196 5.10131 8.89706C4.87255 9.14216 4.59232 9.34216 4.26062 9.49706C3.92892 9.65196 3.54957 9.74314 3.12255 9.77059L3.05392 10.6353C3.05011 10.7255 3.01294 10.8088 2.9424 10.8853C2.87187 10.9618 2.78322 11 2.67647 11H2.15605L2.25899 9.74118C1.81291 9.67843 1.39352 9.55294 1.00082 9.36471C0.608113 9.17647 0.274511 8.94314 0 8.66471L0.434641 8C0.472767 7.94118 0.523284 7.89314 0.586193 7.85588C0.649102 7.81863 0.716775 7.8 0.789216 7.8C0.873094 7.8 0.96269 7.83039 1.05801 7.89118C1.15332 7.95196 1.26198 8.02255 1.38399 8.10294C1.50599 8.18333 1.64515 8.26471 1.80147 8.34706C1.95779 8.42941 2.1427 8.4902 2.35621 8.52941L2.56781 5.9C2.29711 5.82157 2.02928 5.72941 1.7643 5.62353C1.49932 5.51765 1.26103 5.37745 1.04943 5.20294C0.837826 5.02843 0.667212 4.80784 0.537582 4.54118C0.407951 4.27451 0.343137 3.94118 0.343137 3.54118C0.343137 3.24314 0.400326 2.95196 0.514706 2.66765C0.629086 2.38333 0.797793 2.12941 1.02083 1.90588C1.24387 1.68235 1.51743 1.49804 1.8415 1.35294C2.16558 1.20784 2.53731 1.12549 2.9567 1.10588L3.01961 0.364706C3.02723 0.270588 3.06536 0.186275 3.13399 0.111765C3.20261 0.0372545 3.29221 0 3.40278 0H3.9232L3.8317 1.15294C4.23584 1.21961 4.58469 1.33823 4.87827 1.50882C5.17184 1.67941 5.42538 1.87059 5.63889 2.08235L5.29575 2.61765C5.24619 2.69608 5.19472 2.7549 5.14134 2.79412C5.08796 2.83333 5.02315 2.85294 4.9469 2.85294C4.88971 2.85294 4.82108 2.83431 4.74101 2.79706C4.66095 2.7598 4.57135 2.71471 4.47222 2.66176C4.37309 2.60882 4.26157 2.5549 4.13766 2.5C4.01375 2.4451 3.87745 2.4 3.72876 2.36471L3.52859 4.8Z" fill="#717171"/>
</svg>
