<svg width="18" height="18" viewBox="0 0 18 18" fill="none" xmlns="http://www.w3.org/2000/svg">
<path fill-rule="evenodd" clip-rule="evenodd" d="M9 18C13.9706 18 18 13.9706 18 9C18 4.02944 13.9706 0 9 0C4.02944 0 0 4.02944 0 9C0 13.9706 4.02944 18 9 18Z" fill="white"/>
<path fill-rule="evenodd" clip-rule="evenodd" d="M9 17.5C13.6944 17.5 17.5 13.6944 17.5 9C17.5 4.30558 13.6944 0.5 9 0.5C4.30558 0.5 0.5 4.30558 0.5 9C0.5 13.6944 4.30558 17.5 9 17.5Z" stroke="#9B9B9B"/>
<path fill-rule="evenodd" clip-rule="evenodd" d="M6.18907 5.782C6.03507 6.202 5.95807 6.66866 5.95807 7.182H7.55407C7.55407 6.54733 7.69173 6.041 7.96707 5.663C8.2424 5.285 8.6694 5.096 9.24807 5.096C9.3694 5.096 9.5094 5.124 9.66807 5.18C9.82674 5.236 9.97607 5.32466 10.1161 5.446C10.2561 5.56733 10.3751 5.72833 10.4731 5.929C10.5711 6.12967 10.6201 6.37 10.6201 6.65C10.6201 6.88333 10.5897 7.084 10.5291 7.252C10.4684 7.42 10.3844 7.57166 10.2771 7.707C10.1697 7.84233 10.0484 7.966 9.91307 8.078C9.77773 8.19 9.6354 8.31133 9.48607 8.442C9.2994 8.60067 9.1384 8.76166 9.00307 8.925C8.86773 9.08833 8.7534 9.27733 8.66007 9.492C8.56674 9.70667 8.49907 9.95633 8.45707 10.241C8.41507 10.5257 8.39407 10.8733 8.39407 11.284H9.90607C9.90607 10.948 9.9364 10.6633 9.99707 10.43C10.0577 10.1967 10.1441 9.99367 10.2561 9.821C10.3681 9.64833 10.4987 9.492 10.6481 9.352C10.7974 9.212 10.9607 9.06733 11.1381 8.918C11.2874 8.78733 11.4367 8.65433 11.5861 8.519C11.7354 8.38366 11.8684 8.22967 11.9851 8.057C12.1017 7.88433 12.1951 7.679 12.2651 7.441C12.3351 7.203 12.3701 6.92067 12.3701 6.594C12.3701 6.146 12.2907 5.74467 12.1321 5.39C11.9734 5.03533 11.7564 4.739 11.4811 4.501C11.2057 4.263 10.8837 4.081 10.5151 3.955C10.1464 3.829 9.7474 3.766 9.31807 3.766C8.80473 3.766 8.3404 3.84766 7.92507 4.011C7.50973 4.17433 7.15507 4.40533 6.86107 4.704C6.56707 5.00267 6.34307 5.362 6.18907 5.782ZM10.0601 12.25H8.18407V14H10.0601V12.25Z" fill="#9B9B9B"/>
</svg>
