<svg width="18" height="18" viewBox="0 0 18 18" fill="none" xmlns="http://www.w3.org/2000/svg">
<path fill-rule="evenodd" clip-rule="evenodd" d="M9 17.5C13.6944 17.5 17.5 13.6944 17.5 9C17.5 4.30558 13.6944 0.5 9 0.5C4.30558 0.5 0.5 4.30558 0.5 9C0.5 13.6944 4.30558 17.5 9 17.5Z" stroke="#9B9B9B"/>
<path fill-rule="evenodd" clip-rule="evenodd" d="M9.91772 5.37975C9.97257 5.2616 10 5.13502 10 5C10 4.86076 9.97257 4.72996 9.91772 4.60759C9.86287 4.48523 9.79008 4.37975 9.69937 4.29114C9.60865 4.20253 9.50211 4.13186 9.37975 4.07911C9.25738 4.02637 9.12658 4 8.98734 4C8.85232 4 8.72468 4.02637 8.60443 4.07911C8.48418 4.13186 8.37975 4.20253 8.29114 4.29114C8.20253 4.37975 8.13186 4.48523 8.07911 4.60759C8.02637 4.72996 8 4.86076 8 5C8 5.13502 8.02637 5.2616 8.07911 5.37975C8.13186 5.49789 8.20253 5.60127 8.29114 5.68987C8.37975 5.77848 8.48418 5.84916 8.60443 5.9019C8.72468 5.95464 8.85232 5.98101 8.98734 5.98101C9.12658 5.98101 9.25738 5.95464 9.37975 5.9019C9.50211 5.84916 9.60865 5.77848 9.69937 5.68987C9.79008 5.60127 9.86287 5.49789 9.91772 5.37975ZM9.78471 13.3861V6.89241H8.21509V13.3861H9.78471Z" fill="#9B9B9B"/>
</svg>
