<svg width="16" height="16" viewBox="0 0 16 16" fill="none" xmlns="http://www.w3.org/2000/svg">
<path fill-rule="evenodd" clip-rule="evenodd" d="M2.30784 15.1149C2.86458 15.6815 3.59554 15.965 4.3265 15.965C5.05806 15.965 5.78902 15.6815 6.34546 15.1136L10.36 11.0222C10.8998 10.4727 11.1967 9.74338 11.1967 8.96542C11.1961 8.18957 10.8998 7.45901 10.36 6.90927L9.13895 5.66459L8.0708 6.75289L9.29183 7.99757C9.54576 8.25629 9.68591 8.60014 9.68591 8.96572C9.68591 9.3307 9.54576 9.67455 9.29183 9.93327L5.27672 14.0253C4.75228 14.5591 3.90013 14.5591 3.37569 14.0253L2.15465 12.7807C1.63021 12.2469 1.63021 11.3784 2.15465 10.8438L4.16146 8.79848L3.09332 7.71018L1.08591 9.75546C-0.0269796 10.8906 -0.026387 12.7354 1.08591 13.8693L2.30784 15.1149Z" fill="#337AB7"/>
<path fill-rule="evenodd" clip-rule="evenodd" d="M13.6471 1.07319C13.1078 0.523157 12.3914 0.220062 11.6284 0.220062H11.6273C10.8646 0.220062 10.1476 0.523157 9.60829 1.07199L5.59437 5.16285C5.05392 5.71289 4.75644 6.44285 4.75644 7.22052C4.75644 7.99697 5.05333 8.72814 5.59318 9.27727L6.81422 10.5213L7.88296 9.43304L6.66133 8.18897C6.40799 7.93085 6.26725 7.5864 6.26725 7.22082C6.26725 6.85463 6.40799 6.51078 6.66192 6.25267L10.677 2.16059C10.9304 1.90248 11.2678 1.75968 11.6278 1.75968H11.6284C11.9867 1.75968 12.3241 1.90248 12.5781 2.16059L13.7991 3.40587C14.0524 3.66399 14.1926 4.00784 14.1926 4.37402C14.1926 4.73901 14.0524 5.08406 13.7991 5.34218L11.7917 7.38806L12.8598 8.47636L14.8673 6.43048C15.4065 5.88165 15.7034 5.15048 15.704 4.37372C15.704 3.59667 15.4065 2.8661 14.8673 2.31697L13.6471 1.07319Z" fill="#337AB7"/>
</svg>
