<svg width="16" height="16" viewBox="0 0 16 16" fill="none" xmlns="http://www.w3.org/2000/svg">
<path fill-rule="evenodd" clip-rule="evenodd" d="M2.30784 15.1149C2.86458 15.6815 3.59554 15.965 4.3265 15.965C5.05806 15.965 5.78902 15.6815 6.34546 15.1137L10.36 11.0222C10.8998 10.4728 11.1967 9.74341 11.1967 8.96545C11.1961 8.1896 10.8998 7.45904 10.36 6.9093L9.13895 5.66462L8.0708 6.75292L9.29183 7.9976C9.54576 8.25632 9.68591 8.60017 9.68591 8.96575C9.68591 9.33073 9.54576 9.67458 9.29183 9.9333L5.27672 14.0254C4.75228 14.5591 3.90013 14.5591 3.37569 14.0254L2.15465 12.7807C1.63021 12.247 1.63021 11.3784 2.15465 10.8438L4.16146 8.79851L3.09332 7.71021L1.08591 9.75549C-0.0269796 10.8906 -0.026387 12.7354 1.08591 13.8693L2.30784 15.1149Z" fill="#2E6DA4"/>
<path fill-rule="evenodd" clip-rule="evenodd" d="M13.6471 1.07322C13.1078 0.523187 12.3914 0.220093 11.6284 0.220093H11.6273C10.8646 0.220093 10.1476 0.523187 9.60829 1.07202L5.59437 5.16289C5.05392 5.71292 4.75644 6.44289 4.75644 7.22055C4.75644 7.997 5.05333 8.72817 5.59318 9.2773L6.81422 10.5214L7.88296 9.43307L6.66133 8.189C6.40799 7.93089 6.26725 7.58643 6.26725 7.22085C6.26725 6.85466 6.40799 6.51081 6.66192 6.2527L10.677 2.16062C10.9304 1.90251 11.2678 1.75972 11.6278 1.75972H11.6284C11.9867 1.75972 12.3241 1.90251 12.5781 2.16062L13.7991 3.4059C14.0524 3.66402 14.1926 4.00787 14.1926 4.37405C14.1926 4.73904 14.0524 5.08409 13.7991 5.34221L11.7917 7.38809L12.8598 8.47639L14.8673 6.43051C15.4065 5.88168 15.7034 5.15051 15.704 4.37375C15.704 3.5967 15.4065 2.86613 14.8673 2.317L13.6471 1.07322Z" fill="#2E6DA4"/>
</svg>
