<svg width="13" height="16" viewBox="0 0 13 16" fill="none" xmlns="http://www.w3.org/2000/svg">
<path fill-rule="evenodd" clip-rule="evenodd" d="M3.13115 0C2.47893 0 1.9502 0.52873 1.9502 1.18095V6.66667H3.76124C3.47893 6.66629 3.2502 6.43731 3.2502 6.15492V1.84508C3.2502 1.56245 3.47931 1.33333 3.76194 1.33333H9.23845C9.52108 1.33333 9.7502 1.56245 9.7502 1.84508V6.15492C9.7502 6.43731 9.52146 6.66629 9.23916 6.66667H11.0502V1.18095C11.0502 0.52873 10.5215 0 9.86924 0H3.13115Z" fill="#690C4C"/>
<path fill-rule="evenodd" clip-rule="evenodd" d="M12.0021 5.33337H0.997905C0.446777 5.33337 0 5.79161 0 6.35687V14.9765C0 15.5418 0.446777 16 0.997905 16H12.0021C12.5532 16 13 15.5418 13 14.9765V6.35687C13 5.79161 12.5532 5.33337 12.0021 5.33337ZM1.3 14.6667V6.66671H11.7V14.6667H1.3Z" fill="#690C4C"/>
<path fill-rule="evenodd" clip-rule="evenodd" d="M6.5002 11.3333C7.21817 11.3333 7.8002 10.7363 7.8002 9.99996C7.8002 9.26358 7.21817 8.66663 6.5002 8.66663C5.78223 8.66663 5.2002 9.26358 5.2002 9.99996C5.2002 10.7363 5.78223 11.3333 6.5002 11.3333Z" fill="#690C4C"/>
<rect x="5.84961" y="10.6666" width="1.3" height="2.66667" rx="0.511746" fill="#690C4C"/>
</svg>
