<svg width="72" height="79" viewBox="0 0 72 79" fill="none" xmlns="http://www.w3.org/2000/svg">
<path fill-rule="evenodd" clip-rule="evenodd" d="M46.5759 53.5059L59.7011 72.2515C60.8098 73.8331 60.4254 76.0135 58.8424 77.122C58.0523 77.6757 57.1109 77.8563 56.23 77.701C55.3492 77.5456 54.5269 77.0541 53.9732 76.2634L40.849 57.5201C35.4112 60.398 29.2135 61.3915 23.0579 60.3061C15.7411 59.016 9.36546 54.9541 5.10347 48.8682C0.84298 42.7819 -0.793965 35.4007 0.496173 28.0839C1.78631 20.7672 5.84837 14.3909 11.9348 10.1297C18.0207 5.86777 25.4011 4.23141 32.7179 5.52155C40.034 6.81158 46.4104 10.8736 50.6722 16.9602C58.7901 28.5518 56.8017 44.2384 46.5759 53.5059ZM7.38262 29.2975C6.41696 34.774 7.6419 40.2995 10.8322 44.8557C14.0225 49.4119 18.7952 52.4527 24.2725 53.4178C29.7491 54.3834 35.2753 53.1586 39.8315 49.9684C49.2357 43.3829 51.5294 30.3748 44.9446 20.9707C41.7543 16.4145 36.9802 13.3735 31.5037 12.4078C26.0264 11.4421 20.5016 12.6671 15.9461 15.8575C11.3892 19.0477 8.34841 23.8203 7.38262 29.2975Z" fill="#323232"/>
<path d="M14 36.9999L14.0844 37.2202C16.6494 43.9192 23.5985 47.8645 30.6655 46.6341L32 46.4018" stroke="#4A90E2" stroke-opacity="0.7" stroke-width="4" stroke-linecap="round"/>
</svg>
