<svg width="16" height="17" viewBox="0 0 16 17" fill="none" xmlns="http://www.w3.org/2000/svg">
<path fill-rule="evenodd" clip-rule="evenodd" d="M13.4938 3.82225C13.1521 3.79109 12.8495 4.04042 12.8181 4.37929L11.9895 13.3102L11.9869 13.3666C11.9875 14.0118 11.7552 14.5903 11.4018 14.9949C11.0455 15.4007 10.5903 15.6259 10.1018 15.6265H5.89948C5.41091 15.6259 4.95577 15.4007 4.59948 14.9949C4.24634 14.5903 4.01406 14.0118 4.01463 13.3666L4.01206 13.3102L3.18348 4.37929C3.15177 4.04042 2.84948 3.7908 2.50777 3.82225C2.16606 3.85342 1.91434 4.15347 1.94606 4.49234L2.77463 13.4233L2.77691 13.423C2.79063 14.3373 3.11577 15.176 3.65948 15.801C4.21177 16.438 5.00977 16.8598 5.89977 16.8593H10.1021C10.9921 16.8598 11.7901 16.438 12.3423 15.801C12.8861 15.176 13.2112 14.3373 13.2249 13.423L13.2272 13.4233L14.0561 4.49234C14.0872 4.15347 13.8355 3.85342 13.4938 3.82225Z" fill="#9B9B9B"/>
<path fill-rule="evenodd" clip-rule="evenodd" d="M11.0183 2.14007H15.2297C15.5728 2.14007 15.8511 2.41604 15.8511 2.75632C15.8511 3.0966 15.5728 3.37257 15.2297 3.37257H0.770843C0.4277 3.37257 0.149414 3.0966 0.149414 2.75632C0.149414 2.41604 0.4277 2.14007 0.770843 2.14007H4.9817V2.05025C4.98427 0.995686 5.84399 0.143136 6.90713 0.140869H9.09313C10.1563 0.143136 11.016 0.995969 11.0183 2.05025V2.14007ZM6.90713 1.37365C6.53627 1.37422 6.22541 1.6822 6.22484 2.05025V2.14007H9.77541V2.05025C9.77456 1.6822 9.46427 1.37422 9.09313 1.37365H6.90713Z" fill="#9B9B9B"/>
<path fill-rule="evenodd" clip-rule="evenodd" d="M10.2783 13.829L10.6926 5.52591C10.7095 5.18591 10.4455 4.89663 10.1026 4.87991C9.75975 4.86319 9.46804 5.12499 9.45118 5.46499L9.0369 13.7681C9.02004 14.1081 9.28404 14.3974 9.6269 14.4141C9.96975 14.4311 10.2615 14.169 10.2783 13.829Z" fill="#9B9B9B"/>
<path fill-rule="evenodd" clip-rule="evenodd" d="M6.37312 14.4141C6.71598 14.3974 6.97998 14.1081 6.96312 13.7681L6.54883 5.46499C6.53198 5.12499 6.24026 4.86319 5.89741 4.87991C5.55455 4.89663 5.29055 5.18591 5.30741 5.52591L5.72169 13.829C5.73855 14.169 6.03026 14.4311 6.37312 14.4141Z" fill="#9B9B9B"/>
</svg>
