<svg width="14" height="15" viewBox="0 0 14 15" fill="none" xmlns="http://www.w3.org/2000/svg">
<path fill-rule="evenodd" clip-rule="evenodd" d="M11.8068 3.37248C11.5078 3.34498 11.2431 3.56498 11.2156 3.86398L10.4906 11.7442L10.4883 11.794C10.4888 12.3632 10.2856 12.8737 9.97631 13.2307C9.66456 13.5887 9.2663 13.7875 8.8388 13.788H5.1618C4.7343 13.7875 4.33605 13.5887 4.0243 13.2307C3.7153 12.8737 3.51205 12.3632 3.51255 11.794L3.5103 11.7442L2.7853 3.86398C2.75755 3.56498 2.49305 3.34473 2.19405 3.37248C1.89505 3.39998 1.6748 3.66473 1.70255 3.96373L2.42755 11.844L2.42955 11.8437C2.44155 12.6505 2.72605 13.3905 3.2018 13.942C3.68505 14.504 4.3833 14.8762 5.16205 14.8757H8.83905C9.6178 14.8762 10.3161 14.504 10.7993 13.942C11.2751 13.3905 11.5596 12.6505 11.5716 11.8437L11.5736 11.844L12.2988 3.96373C12.3261 3.66473 12.1058 3.39998 11.8068 3.37248Z" fill="white"/>
<path fill-rule="evenodd" clip-rule="evenodd" d="M9.64111 1.88827H13.3261C13.6264 1.88827 13.8699 2.13177 13.8699 2.43202C13.8699 2.73227 13.6264 2.97577 13.3261 2.97577H0.674609C0.374359 2.97577 0.130859 2.73227 0.130859 2.43202C0.130859 2.13177 0.374359 1.88827 0.674609 1.88827H4.35911V1.80902C4.36136 0.878518 5.11361 0.126268 6.04386 0.124268H7.95661C8.88686 0.126268 9.63911 0.878768 9.64111 1.80902V1.88827ZM6.04386 1.21202C5.71936 1.21252 5.44736 1.48427 5.44686 1.80902V1.88827H8.55361V1.80902C8.55286 1.48427 8.28136 1.21252 7.95661 1.21202H6.04386Z" fill="white"/>
<path fill-rule="evenodd" clip-rule="evenodd" d="M8.99317 12.2021L9.35567 4.87584C9.37042 4.57584 9.13942 4.32059 8.83942 4.30584C8.53942 4.29109 8.28417 4.52209 8.26942 4.82209L7.90692 12.1483C7.89217 12.4483 8.12317 12.7036 8.42317 12.7183C8.72317 12.7333 8.97842 12.5021 8.99317 12.2021Z" fill="white"/>
<path fill-rule="evenodd" clip-rule="evenodd" d="M5.57672 12.7183C5.87672 12.7036 6.10772 12.4483 6.09297 12.1483L5.73047 4.82209C5.71572 4.52209 5.46047 4.29109 5.16047 4.30584C4.86047 4.32059 4.62947 4.57584 4.64422 4.87584L5.00672 12.2021C5.02147 12.5021 5.27672 12.7333 5.57672 12.7183Z" fill="white"/>
</svg>
