<svg width="19" height="20" viewBox="0 0 19 20" fill="none" xmlns="http://www.w3.org/2000/svg">
<path d="M6.64124 3.56067L9.36292 0.7323L12.0807 3.50232" stroke="#717171" stroke-linecap="round"/>
<path d="M9.36844 12.0864L9.32883 0.869873" stroke="#717171" stroke-linecap="round"/>
<path d="M7.00038 7H4.99934C4.44763 7 3.83049 7.41862 3.62649 7.9213L1.37426 13.471C1.16777 13.9799 1.45135 14.3923 1.99116 14.3923H7.00038L7.55444 14.9655C7.94149 15.3659 8.71286 15.6906 9.25565 15.6906H9.74975C10.3022 15.6906 11.0359 15.3358 11.3825 14.9054L11.7958 14.3923H16.805C17.3522 14.3923 17.6259 13.975 17.4158 13.459L15.1757 7.95645C14.9659 7.44099 14.3531 7.02313 13.7968 7.02313H11.7958" stroke="#717171" stroke-linecap="round"/>
<path d="M1.27051 13.8691V17.9173C1.27051 18.4677 1.72211 18.9139 2.26261 18.9139H16.5292C17.0771 18.9139 17.5213 18.4662 17.5213 17.9173V13.8691" stroke="#717171"/>
</svg>
