<svg width="16" height="15" viewBox="0 0 16 15" fill="none" xmlns="http://www.w3.org/2000/svg">
<path fill-rule="evenodd" clip-rule="evenodd" d="M6.53405 1.60628C7.34372 0.166868 8.66187 0.176512 9.46612 1.60628L15.534 12.3937C16.3437 13.8331 15.6472 15 14.0075 15H1.99262C0.339888 15 -0.338126 13.8235 0.466119 12.3937L6.53405 1.60628Z" fill="#EBB55C"/>
<path fill-rule="evenodd" clip-rule="evenodd" d="M7.08228 12.0063C7.02743 12.1245 7 12.2511 7 12.3861C7 12.5253 7.02743 12.6561 7.08228 12.7785C7.13713 12.9008 7.20992 13.0063 7.30063 13.0949C7.39135 13.1835 7.49789 13.2542 7.62025 13.307C7.74262 13.3597 7.87342 13.3861 8.01266 13.3861C8.14768 13.3861 8.27532 13.3597 8.39557 13.307C8.51582 13.2542 8.62025 13.1835 8.70886 13.0949C8.79747 13.0063 8.86814 12.9008 8.92089 12.7785C8.97363 12.6561 9 12.5253 9 12.3861C9 12.2511 8.97363 12.1245 8.92089 12.0063C8.86814 11.8882 8.79747 11.7848 8.70886 11.6962C8.62025 11.6076 8.51582 11.5369 8.39557 11.4842C8.27532 11.4314 8.14768 11.4051 8.01266 11.4051C7.87342 11.4051 7.74262 11.4314 7.62025 11.4842C7.49789 11.5369 7.39135 11.6076 7.30063 11.6962C7.20992 11.7848 7.13713 11.8882 7.08228 12.0063ZM7.21529 4L7.21529 10.4937H8.78491L8.78491 4H7.21529Z" fill="white"/>
</svg>
